<?xml version="1.0" encoding="UTF-8" standalone="no"?>
<svg
   xmlns:dc="http://purl.org/dc/elements/1.1/"
   xmlns:cc="http://creativecommons.org/ns#"
   xmlns:rdf="http://www.w3.org/1999/02/22-rdf-syntax-ns#"
   xmlns:svg="http://www.w3.org/2000/svg"
   xmlns="http://www.w3.org/2000/svg"
   xmlns:sodipodi="http://sodipodi.sourceforge.net/DTD/sodipodi-0.dtd"
   xmlns:inkscape="http://www.inkscape.org/namespaces/inkscape"
   version="1.1"
   x="0px"
   y="0px"
   viewBox="0 0 46.579662 35.860352"
   enable-background="new 0 0 64 64"
   xml:space="preserve"
   id="svg10"
   sodipodi:docname="Piece_Eteindre.svg"
   inkscape:version="0.92.2 (5c3e80d, 2017-08-06)"
   width="46.579662"
   height="35.860352"><metadata
     id="metadata16"><rdf:RDF><cc:Work
         rdf:about=""><dc:format>image/svg+xml</dc:format><dc:type
           rdf:resource="http://purl.org/dc/dcmitype/StillImage" /><dc:title /></cc:Work></rdf:RDF></metadata><defs
     id="defs14" /><sodipodi:namedview
     pagecolor="#ffffff"
     bordercolor="#666666"
     borderopacity="1"
     objecttolerance="10"
     gridtolerance="10"
     guidetolerance="10"
     inkscape:pageopacity="0"
     inkscape:pageshadow="2"
     inkscape:window-width="1366"
     inkscape:window-height="705"
     id="namedview12"
     showgrid="false"
     inkscape:zoom="4.17193"
     inkscape:cx="22.110664"
     inkscape:cy="29.29131"
     inkscape:window-x="-8"
     inkscape:window-y="-8"
     inkscape:window-maximized="1"
     inkscape:current-layer="svg10"
     fit-margin-top="0"
     fit-margin-left="0"
     fit-margin-right="0"
     fit-margin-bottom="0" /><path
     inkscape:connector-curvature="0"
     d="M 35.844869,34.071295 V 22.403043 c 0,-0.886787 0,-1.773574 0.886787,-1.773574 1.773575,0 2.707035,1.773574 5.367396,1.773574 2.660362,0 4.480609,-1.773574 4.480609,-4.480609 0,-2.707034 -1.773574,-4.480608 -4.480609,-4.480608 -2.707034,0 -3.593821,1.773574 -5.367396,1.773574 -0.886787,0 -0.886787,-0.886787 -0.886787,-1.773574 V 1.773574 C 35.844869,0 35.844869,0 34.071295,0 H 22.403043 c -8.961217,0 0,0 -8.961217,0 H 1.773574 C 0,0 0,0 0,1.773574 v 11.668252 c 0,0.886787 0,1.773574 0.886787,1.773574 1.773574,0 2.707035,-1.773574 5.367396,-1.773574 2.660361,0 4.480609,1.773574 4.480609,4.480608 0,2.707035 -1.773575,4.480609 -4.480609,4.480609 -2.707034,0 -3.593822,-1.773574 -5.367396,-1.773574 C 0,20.629469 0,21.516256 0,22.403043 v 11.668252 c 0,1.773574 0,1.773574 1.773574,1.773574 h 11.668252 c 11.755897,0.03484 0,0 8.961217,0 h 11.668252 c 1.773574,0.04667 1.773574,0.04667 1.773574,-1.773574 z"
     id="path21"
     style="fill:#6a89cc;fill-opacity:1;stroke-width:1.5;stroke:#f200db;stroke-opacity:1;stroke-miterlimit:4;stroke-dasharray:none"
     sodipodi:nodetypes="ssssssssssccssssssssssscccs" /><g
     style="fill:#fed8c1;fill-opacity:1"
     id="g4"
     transform="matrix(0.34390448,0,0,0.34390448,6.483537,-320.82247)"><path
       id="path2"
       overflow="visible"
       display="inline"
       visibility="visible"
       marker="none"
       d="m 79.878511,971.36839 a 0.99966608,0.99976918 0 0 0 -0.624729,0.31241 l -12.619525,12.62082 c -2.679701,-6.86723 -9.097885,-11.90232 -16.649024,-11.90232 -9.979245,0 -17.992191,8.80786 -17.992191,18.99373 0,6.00068 1.929038,8.99777 3.685899,11.52747 1.675918,2.413 3.14595,4.4121 3.279828,9.0595 l -19.678961,19.681 a 1.0050596,1.0051632 0 0 0 1.436877,1.4057 l 18.27332,-18.2752 v 9.1845 c 0,1.3178 0.715855,2.4301 1.655531,3.1864 0.675367,0.5435 1.496566,0.8546 2.342733,1.031 v 1.4683 c 0,1.5145 1.259935,2.7177 2.748808,2.7177 h 8.496313 c 1.488873,0 2.748807,-1.2032 2.748807,-2.7177 v -1.4683 c 0.846167,-0.1764 1.667368,-0.4875 2.342734,-1.031 0.939675,-0.7563 1.655531,-1.8686 1.655531,-3.1864 v -11.34 c 0,-5.1514 1.554202,-7.1859 3.311063,-9.7155 1.756861,-2.5297 3.6859,-5.52679 3.6859,-11.52747 0,-1.69679 -0.239205,-3.34992 -0.655965,-4.93587 l 13.369198,-13.37058 a 0.99966608,0.99976918 0 0 0 -0.593492,-1.71819 0.99966608,0.99976918 0 0 0 -0.218655,0 z m -29.893278,3.03025 c 6.945955,0 12.891898,4.90511 15.087202,11.46496 l -24.270716,24.2732 c -0.483038,-3.9644 -2.040964,-6.2736 -3.498482,-8.3722 -1.74162,-2.50768 -3.311064,-4.77294 -3.311064,-10.37157 0,-9.13657 7.196677,-16.99439 15.99306,-16.99439 z m 15.680695,13.71422 c 0.206299,1.07025 0.312364,2.15928 0.312364,3.28017 0,5.59863 -1.569442,7.86389 -3.311063,10.37157 -1.74162,2.5077 -3.6859,5.2856 -3.6859,10.8714 v 2.749 H 40.989136 v -2.5928 z m -24.676792,29.27144 h 17.992193 v 6.5917 c 0,0.5717 -0.317102,1.1506 -0.905857,1.6244 -0.588754,0.4739 -1.419609,0.781 -2.092841,0.781 a 0.99966608,0.99976918 0 0 0 -0.999567,0.9996 v 2.2807 c 0,0.3746 -0.35572,0.7184 -0.749674,0.7184 h -8.496313 c -0.393954,0 -0.749674,-0.3438 -0.749674,-0.7184 v -2.2807 a 0.99966608,0.99976918 0 0 0 -0.999567,-0.9996 c -0.673234,0 -1.504086,-0.3071 -2.092843,-0.781 -0.588754,-0.4738 -0.905857,-1.0527 -0.905857,-1.6244 z"
       style="color:#000000;text-indent:0;text-transform:none;direction:ltr;baseline-shift:baseline;display:inline;overflow:visible;visibility:visible;fill:#fed8c1;fill-opacity:1;stroke:none;enable-background:accumulate"
       inkscape:connector-curvature="0" /></g></svg>