<?xml version="1.0" encoding="UTF-8" standalone="no"?>
<svg
   xmlns:dc="http://purl.org/dc/elements/1.1/"
   xmlns:cc="http://creativecommons.org/ns#"
   xmlns:rdf="http://www.w3.org/1999/02/22-rdf-syntax-ns#"
   xmlns:svg="http://www.w3.org/2000/svg"
   xmlns="http://www.w3.org/2000/svg"
   xmlns:sodipodi="http://sodipodi.sourceforge.net/DTD/sodipodi-0.dtd"
   xmlns:inkscape="http://www.inkscape.org/namespaces/inkscape"
   version="1.1"
   x="0px"
   y="0px"
   viewBox="0 0 48 48"
   xml:space="preserve"
   id="svg1584"
   sodipodi:docname="Delete.svg"
   width="48"
   height="48"
   inkscape:version="0.92.2 (5c3e80d, 2017-08-06)"><metadata
     id="metadata1590"><rdf:RDF><cc:Work
         rdf:about=""><dc:format>image/svg+xml</dc:format><dc:type
           rdf:resource="http://purl.org/dc/dcmitype/StillImage" /><dc:title></dc:title></cc:Work></rdf:RDF></metadata><defs
     id="defs1588" /><sodipodi:namedview
     pagecolor="#ffffff"
     bordercolor="#666666"
     borderopacity="1"
     objecttolerance="10"
     gridtolerance="10"
     guidetolerance="10"
     inkscape:pageopacity="0"
     inkscape:pageshadow="2"
     inkscape:window-width="1366"
     inkscape:window-height="705"
     id="namedview1586"
     showgrid="false"
     fit-margin-top="0"
     fit-margin-left="0"
     fit-margin-right="0"
     fit-margin-bottom="0"
     inkscape:zoom="3.9333333"
     inkscape:cx="-7.5137288"
     inkscape:cy="18"
     inkscape:window-x="-8"
     inkscape:window-y="-8"
     inkscape:window-maximized="1"
     inkscape:current-layer="svg1584" /><g
     id="g1578"
     style="fill:#6a89cc;fill-opacity:1"><path
       d="M 20.5,16 H 18 V 35 H 29 V 16 H 26.5 Z M 21,32.5 C 21,32.776 20.775,33 20.5,33 20.225,33 20,32.776 20,32.5 v -14 c 0,-0.276 0.225,-0.5 0.5,-0.5 0.275,0 0.5,0.224 0.5,0.5 z m 3,0 C 24,32.776 23.775,33 23.5,33 23.225,33 23,32.776 23,32.5 v -14 c 0,-0.276 0.225,-0.5 0.5,-0.5 0.275,0 0.5,0.224 0.5,0.5 z m 3,-14 v 14 C 27,32.776 26.775,33 26.5,33 26.225,33 26,32.776 26,32.5 v -14 c 0,-0.276 0.225,-0.5 0.5,-0.5 0.275,0 0.5,0.224 0.5,0.5 z"
       id="path1572"
       style="fill:#6a89cc;fill-opacity:1"
       inkscape:connector-curvature="0" /><rect
       x="21"
       y="13"
       width="5"
       height="2"
       id="rect1574"
       style="fill:#6a89cc;fill-opacity:1" /><path
       d="M 24,0 C 10.745,0 0,10.745 0,24 0,37.255 10.745,48 24,48 37.255,48 48,37.255 48,24 48,10.745 37.255,0 24,0 Z m 7.5,16 H 30 v 19.5 c 0,0.276 -0.225,0.5 -0.5,0.5 h -12 C 17.225,36 17,35.776 17,35.5 V 16 H 15.5 C 15.225,16 15,15.776 15,15.5 15,15.224 15.225,15 15.5,15 h 2 2.5 V 12.5 C 20,12.224 20.225,12 20.5,12 h 6 c 0.275,0 0.5,0.224 0.5,0.5 V 15 h 2.5 2 c 0.275,0 0.5,0.224 0.5,0.5 0,0.276 -0.225,0.5 -0.5,0.5 z"
       id="path1576"
       style="fill:#6a89cc;fill-opacity:1"
       inkscape:connector-curvature="0" /></g></svg>