<?xml version="1.0" encoding="UTF-8" standalone="no"?>
<svg
   xmlns:dc="http://purl.org/dc/elements/1.1/"
   xmlns:cc="http://creativecommons.org/ns#"
   xmlns:rdf="http://www.w3.org/1999/02/22-rdf-syntax-ns#"
   xmlns:svg="http://www.w3.org/2000/svg"
   xmlns="http://www.w3.org/2000/svg"
   xmlns:sodipodi="http://sodipodi.sourceforge.net/DTD/sodipodi-0.dtd"
   xmlns:inkscape="http://www.inkscape.org/namespaces/inkscape"
   version="1.1"
   x="0px"
   y="0px"
   viewBox="0 0 48 48"
   xml:space="preserve"
   id="svg14"
   sodipodi:docname="Nouveau.svg"
   width="48"
   height="48"
   inkscape:version="0.92.2 (5c3e80d, 2017-08-06)"><metadata
     id="metadata20"><rdf:RDF><cc:Work
         rdf:about=""><dc:format>image/svg+xml</dc:format><dc:type
           rdf:resource="http://purl.org/dc/dcmitype/StillImage" /><dc:title></dc:title></cc:Work></rdf:RDF></metadata><defs
     id="defs18" /><sodipodi:namedview
     pagecolor="#ffffff"
     bordercolor="#666666"
     borderopacity="1"
     objecttolerance="10"
     gridtolerance="10"
     guidetolerance="10"
     inkscape:pageopacity="0"
     inkscape:pageshadow="2"
     inkscape:window-width="1366"
     inkscape:window-height="705"
     id="namedview16"
     showgrid="false"
     fit-margin-top="0"
     fit-margin-left="0"
     fit-margin-right="0"
     fit-margin-bottom="0"
     inkscape:zoom="3.9333333"
     inkscape:cx="-7.6525424"
     inkscape:cy="18"
     inkscape:window-x="-8"
     inkscape:window-y="-8"
     inkscape:window-maximized="1"
     inkscape:current-layer="svg14" /><g
     id="g8"
     style="fill:#6a89cc;fill-opacity:1"><path
       d="M 25,19.5 C 25,19.775 24.775,20 24.5,20 H 18 V 35 H 32 V 13 h -7 z m 2.5,7.5 c 0.275,0 0.5,0.225 0.5,0.5 V 30 h 2.5 c 0.275,0 0.5,0.225 0.5,0.5 0,0.275 -0.225,0.5 -0.5,0.5 H 28 v 2.5 C 28,33.775 27.775,34 27.5,34 27.225,34 27,33.775 27,33.5 V 31 H 24.5 C 24.225,31 24,30.775 24,30.5 24,30.225 24.225,30 24.5,30 H 27 V 27.5 C 27,27.225 27.225,27 27.5,27 Z"
       id="path2"
       style="fill:#6a89cc;fill-opacity:1"
       inkscape:connector-curvature="0" /><polygon
       points="24,19 24,13.707 18.707,19 "
       id="polygon4"
       style="fill:#6a89cc;fill-opacity:1" /><path
       d="M 24,0 C 10.745,0 0,10.745 0,24 0,37.255 10.745,48 24,48 37.255,48 48,37.255 48,24 48,10.745 37.255,0 24,0 Z m 9,35.5 c 0,0.275 -0.225,0.5 -0.5,0.5 h -15 C 17.225,36 17,35.775 17,35.5 v -16 c 0,-0.021 0.01,-0.043 0.014,-0.064 0.002,-0.021 0.006,-0.041 0.012,-0.062 0.022,-0.085 0.06,-0.165 0.121,-0.228 l 7,-7 c 0.063,-0.063 0.146,-0.101 0.23,-0.123 0.02,-0.004 0.037,-0.008 0.057,-0.01 0.022,-0.005 0.043,-0.015 0.066,-0.015 h 8 c 0.275,0 0.5,0.224 0.5,0.5 z"
       id="path6"
       style="fill:#6a89cc;fill-opacity:1"
       inkscape:connector-curvature="0" /></g></svg>