<?xml version="1.0" encoding="UTF-8" standalone="no"?>
<svg
   xmlns:svg="http://www.w3.org/2000/svg"
   xmlns="http://www.w3.org/2000/svg"
   xmlns:sodipodi="http://sodipodi.sourceforge.net/DTD/sodipodi-0.dtd"
   xmlns:inkscape="http://www.inkscape.org/namespaces/inkscape"
   version="1.1"
   x="0px"
   y="0px"

   id="piece_couleur"
   width="76.825699"
   height="99.800003"><path
     inkscape:connector-curvature="0"
     d="M 73,76.8 H 48 c -1.9,0 -3.8,0 -3.8,1.9 0,3.8 3.8,5.8 3.8,11.5 0,5.7 -3.8,9.6 -9.6,9.6 -5.8,0 -9.6,-3.8 -9.6,-9.6 0,-5.8 3.8,-7.7 3.8,-11.5 0,-1.9 -1.9,-1.9 -3.8,-1.9 H 3.8 C 0,76.8 0,76.8 0,73 V 48 C 0,28.8 0,48 0,28.8 V 3.8 C 0,0 0,0 3.8,0 h 25 C 48,0 28.8,0 48,0 h 25 c 3.8,0 3.8,0 3.8,3.8 v 25 c 0,19.2 0,0 0,19.2 v 25 c 0.1,3.8 0.1,3.8 -3.8,3.8 z"
     id="couleur_piece"
     sodipodi:nodetypes="ssssssssssccssccsscccs"
     style="fill:#6a89cc;fill-opacity:1" /></svg>