<?xml version="1.0" encoding="UTF-8" standalone="no"?>
<svg
   xmlns:dc="http://purl.org/dc/elements/1.1/"
   xmlns:cc="http://creativecommons.org/ns#"
   xmlns:rdf="http://www.w3.org/1999/02/22-rdf-syntax-ns#"
   xmlns:svg="http://www.w3.org/2000/svg"
   xmlns="http://www.w3.org/2000/svg"
   xmlns:sodipodi="http://sodipodi.sourceforge.net/DTD/sodipodi-0.dtd"
   xmlns:inkscape="http://www.inkscape.org/namespaces/inkscape"
   version="1.1"
   x="0px"
   y="0px"
   viewBox="0 0 46.579662 35.860352"
   enable-background="new 0 0 64 64"
   xml:space="preserve"
   id="svg10"
   sodipodi:docname="Piece_Clignoter.svg"
   inkscape:version="0.92.2 (5c3e80d, 2017-08-06)"
   width="46.579662"
   height="35.860352"><metadata
     id="metadata16"><rdf:RDF><cc:Work
         rdf:about=""><dc:format>image/svg+xml</dc:format><dc:type
           rdf:resource="http://purl.org/dc/dcmitype/StillImage" /><dc:title /></cc:Work></rdf:RDF></metadata><defs
     id="defs14" /><sodipodi:namedview
     pagecolor="#ffffff"
     bordercolor="#666666"
     borderopacity="1"
     objecttolerance="10"
     gridtolerance="10"
     guidetolerance="10"
     inkscape:pageopacity="0"
     inkscape:pageshadow="2"
     inkscape:window-width="1366"
     inkscape:window-height="705"
     id="namedview12"
     showgrid="false"
     inkscape:zoom="5.9"
     inkscape:cx="-29.976269"
     inkscape:cy="10.280886"
     inkscape:window-x="-8"
     inkscape:window-y="-8"
     inkscape:window-maximized="1"
     inkscape:current-layer="svg10"
     fit-margin-top="0"
     fit-margin-left="0"
     fit-margin-right="0"
     fit-margin-bottom="0" /><path
     inkscape:connector-curvature="0"
     d="M 35.844869,34.071295 V 22.403043 c 0,-0.886787 0,-1.773574 0.886787,-1.773574 1.773575,0 2.707035,1.773574 5.367396,1.773574 2.660362,0 4.480609,-1.773574 4.480609,-4.480609 0,-2.707034 -1.773574,-4.480608 -4.480609,-4.480608 -2.707034,0 -3.593821,1.773574 -5.367396,1.773574 -0.886787,0 -0.886787,-0.886787 -0.886787,-1.773574 V 1.773574 C 35.844869,0 35.844869,0 34.071295,0 H 22.403043 c -0.886787,0 -1.773574,0 -1.773574,0.886787 0,1.773574 1.773574,2.707034 1.773574,5.367396 0,2.660361 -1.773574,4.480608 -4.480608,4.480608 -2.707035,0 -4.480609,-1.773574 -4.480609,-4.480608 0,-2.707035 1.773574,-3.593822 1.773574,-5.367396 C 15.2154,0 14.328613,0 13.441826,0 H 1.773574 C 0,0 0,0 0,1.773574 v 11.668252 c 0,0.886787 0,1.773574 0.886787,1.773574 1.773574,0 2.707035,-1.773574 5.367396,-1.773574 2.660361,0 4.480609,1.773574 4.480609,4.480608 0,2.707035 -1.773575,4.480609 -4.480609,4.480609 -2.707034,0 -3.593822,-1.773574 -5.367396,-1.773574 C 0,20.629469 0,21.516256 0,22.403043 v 11.668252 c 0,1.773574 0,1.773574 1.773574,1.773574 h 11.668252 c 11.755897,0.03484 0,0 8.961217,0 h 11.668252 c 1.773574,0.04667 1.773574,0.04667 1.773574,-1.773574 z"
     id="path21"
     style="fill:#6a89cc;fill-opacity:1;stroke-width:1.5;stroke:#00ff78;stroke-opacity:1;stroke-miterlimit:4;stroke-dasharray:none"
     sodipodi:nodetypes="sssssssssssssssssssssssssssscccs" /><polygon
     style="fill:#fed8c1;fill-opacity:1"
     id="polygon2"
     points="71.604,22.572 82.856,3 55.755,3 38.23,37.648 47.288,37.61 35.958,57.812 44.039,57.75 29.94,98.133 76.876,43.797 66.344,43.813 79.159,22.58 "
     transform="matrix(0.22962768,0,0,0.22962768,15.992102,12.384458)" /></svg>