<?xml version="1.0" encoding="UTF-8" standalone="no"?>
<svg
   xmlns:dc="http://purl.org/dc/elements/1.1/"
   xmlns:cc="http://creativecommons.org/ns#"
   xmlns:rdf="http://www.w3.org/1999/02/22-rdf-syntax-ns#"
   xmlns:svg="http://www.w3.org/2000/svg"
   xmlns="http://www.w3.org/2000/svg"
   xmlns:sodipodi="http://sodipodi.sourceforge.net/DTD/sodipodi-0.dtd"
   xmlns:inkscape="http://www.inkscape.org/namespaces/inkscape"
   version="1.1"
   x="0px"
   y="0px"
   viewBox="0 0 46.579662 35.860352"
   enable-background="new 0 0 64 64"
   xml:space="preserve"
   id="svg10"
   sodipodi:docname="Piece_Allumer.svg"
   inkscape:version="0.92.2 (5c3e80d, 2017-08-06)"
   width="46.579662"
   height="35.860352"><metadata
     id="metadata16"><rdf:RDF><cc:Work
         rdf:about=""><dc:format>image/svg+xml</dc:format><dc:type
           rdf:resource="http://purl.org/dc/dcmitype/StillImage" /><dc:title /></cc:Work></rdf:RDF></metadata><defs
     id="defs14" /><sodipodi:namedview
     pagecolor="#ffffff"
     bordercolor="#666666"
     borderopacity="1"
     objecttolerance="10"
     gridtolerance="10"
     guidetolerance="10"
     inkscape:pageopacity="0"
     inkscape:pageshadow="2"
     inkscape:window-width="1366"
     inkscape:window-height="705"
     id="namedview12"
     showgrid="false"
     inkscape:zoom="2.95"
     inkscape:cx="-93.789828"
     inkscape:cy="33.388362"
     inkscape:window-x="-8"
     inkscape:window-y="-8"
     inkscape:window-maximized="1"
     inkscape:current-layer="svg10"
     fit-margin-top="0"
     fit-margin-left="0"
     fit-margin-right="0"
     fit-margin-bottom="0" /><path
     inkscape:connector-curvature="0"
     d="M 35.844869,34.071295 V 22.403043 c 0,-0.886787 0,-1.773574 0.886787,-1.773574 1.773575,0 2.707035,1.773574 5.367396,1.773574 2.660362,0 4.480609,-1.773574 4.480609,-4.480609 0,-2.707034 -1.773574,-4.480608 -4.480609,-4.480608 -2.707034,0 -3.593821,1.773574 -5.367396,1.773574 -0.886787,0 -0.886787,-0.886787 -0.886787,-1.773574 V 1.773574 C 35.844869,0 35.844869,0 34.071295,0 H 22.403043 c -0.886787,0 -1.773574,0 -1.773574,0.886787 0,1.773574 1.773574,2.707034 1.773574,5.367396 0,2.660361 -1.773574,4.480608 -4.480608,4.480608 -2.707035,0 -4.480609,-1.773574 -4.480609,-4.480608 0,-2.707035 1.773574,-3.593822 1.773574,-5.367396 C 15.2154,0 14.328613,0 13.441826,0 H 1.773574 C 0,0 0,0 0,1.773574 v 11.668252 c 0,0.886787 0,1.773574 0.886787,1.773574 1.773574,0 2.707035,-1.773574 5.367396,-1.773574 2.660361,0 4.480609,1.773574 4.480609,4.480608 0,2.707035 -1.773575,4.480609 -4.480609,4.480609 -2.707034,0 -3.593822,-1.773574 -5.367396,-1.773574 C 0,20.629469 0,21.516256 0,22.403043 v 11.668252 c 0,1.773574 0,1.773574 1.773574,1.773574 h 11.668252 c 11.755897,0.03484 0,0 8.961217,0 h 11.668252 c 1.773574,0.04667 1.773574,0.04667 1.773574,-1.773574 z"
     id="path21"
     style="fill:#6a89cc;fill-opacity:1;stroke-width:1.5;stroke:#fff200;stroke-opacity:1;stroke-miterlimit:4;stroke-dasharray:none"
     sodipodi:nodetypes="sssssssssssssssssssssssssssscccs" /><g
     style="fill:#fed8c1;fill-opacity:1"
     id="g22"
     transform="matrix(0.22945348,0,0,0.22945348,13.546988,11.608175)"><path
       style="fill:#fed8c1;fill-opacity:1"
       id="path2"
       d="m 35.125,72.973 c 0,0.942 0.761,1.705 1.703,1.705 h 15.826 l -16.359,5.46 c -0.899,0.292 -1.381,1.265 -1.089,2.153 0.241,0.722 0.913,1.173 1.622,1.173 0.178,0 0.365,-0.032 0.544,-0.085 l 26.336,-8.785 c 0.795,-0.262 1.288,-1.066 1.15,-1.894 -0.136,-0.825 -0.847,-1.433 -1.684,-1.433 H 36.827 c -0.941,0.001 -1.702,0.762 -1.702,1.706 z"
       inkscape:connector-curvature="0" /><path
       style="fill:#fed8c1;fill-opacity:1"
       id="path4"
       d="m 61.959,89.331 c -0.029,0.031 -3.981,3.89 -11.953,3.89 -4.3,0 -7.426,-1.107 -9.394,-2.144 l 23.094,-7.698 c 0.9,-0.303 1.38,-1.275 1.089,-2.164 -0.306,-0.899 -1.267,-1.382 -2.167,-1.077 l -26.334,8.774 c -0.566,0.188 -0.994,0.659 -1.129,1.233 -0.137,0.577 0.04,1.183 0.459,1.6 0.199,0.199 4.998,4.887 14.381,4.887 9.37,0 14.172,-4.688 14.372,-4.887 0.669,-0.668 0.669,-1.756 0,-2.414 -0.67,-0.669 -1.748,-0.669 -2.418,0 z"
       inkscape:connector-curvature="0" /><path
       style="fill:#fed8c1;fill-opacity:1"
       id="path6"
       d="m 50.006,5.418 c -15.471,0 -28.051,12.581 -28.051,28.04 0,7.771 4.182,13.984 7.865,19.456 2.844,4.213 5.305,7.854 5.305,11.284 0,0.941 0.761,1.704 1.703,1.704 0.942,0 1.716,-0.763 1.716,-1.704 0,-4.476 -2.868,-8.713 -5.89,-13.199 -3.587,-5.313 -7.289,-10.804 -7.289,-17.541 0,-13.575 11.055,-24.63 24.642,-24.63 13.577,0 24.63,11.056 24.63,24.63 0,6.737 -3.713,12.227 -7.289,17.541 -3.023,4.486 -5.878,8.724 -5.878,13.199 0,0.941 0.762,1.704 1.704,1.704 0.941,0 1.706,-0.763 1.706,-1.704 0,-3.43 2.457,-7.071 5.301,-11.284 3.683,-5.472 7.866,-11.684 7.866,-19.456 0,-15.459 -12.584,-28.04 -28.041,-28.04 z"
       inkscape:connector-curvature="0" /><path
       style="fill:#fed8c1;fill-opacity:1"
       id="path8"
       d="m 51.71,15.897 c 0,-0.941 -0.764,-1.705 -1.704,-1.705 -10.627,0 -19.276,8.65 -19.276,19.265 0,0.953 0.764,1.716 1.704,1.716 0.952,0 1.716,-0.763 1.716,-1.716 0,-8.732 7.112,-15.845 15.856,-15.845 0.94,0 1.704,-0.774 1.704,-1.715 z"
       inkscape:connector-curvature="0" /><path
       style="fill:#fed8c1;fill-opacity:1"
       id="path10"
       d="m 20.584,14.203 c 0.304,0.219 0.66,0.324 1.005,0.324 0.533,0 1.046,-0.24 1.38,-0.701 0.554,-0.763 0.386,-1.83 -0.376,-2.385 L 11.935,3.691 C 11.171,3.137 10.105,3.314 9.55,4.078 8.996,4.832 9.164,5.897 9.927,6.463 Z"
       inkscape:connector-curvature="0" /><path
       style="fill:#fed8c1;fill-opacity:1"
       id="path12"
       d="m 78.412,14.527 c 0.347,0 0.702,-0.105 1.007,-0.324 L 90.075,6.463 C 90.839,5.897 91.007,4.832 90.45,4.078 89.896,3.314 88.829,3.137 88.065,3.691 l -10.658,7.75 c -0.762,0.555 -0.929,1.622 -0.375,2.385 0.336,0.461 0.848,0.701 1.38,0.701 z"
       inkscape:connector-curvature="0" /><path
       style="fill:#fed8c1;fill-opacity:1"
       id="path14"
       d="m 98.297,31.753 h -13.17 c -0.951,0 -1.714,0.763 -1.714,1.704 0,0.953 0.763,1.716 1.714,1.716 h 13.17 c 0.939,0 1.703,-0.763 1.703,-1.716 0,-0.94 -0.764,-1.704 -1.703,-1.704 z"
       inkscape:connector-curvature="0" /><path
       style="fill:#fed8c1;fill-opacity:1"
       id="path16"
       d="m 16.59,33.458 c 0,-0.941 -0.764,-1.704 -1.706,-1.704 H 1.705 C 0.765,31.753 0,32.517 0,33.458 c 0,0.953 0.765,1.716 1.705,1.716 h 13.179 c 0.942,-10e-4 1.706,-0.764 1.706,-1.716 z"
       inkscape:connector-curvature="0" /><path
       style="fill:#fed8c1;fill-opacity:1"
       id="path18"
       d="m 79.419,52.724 c -0.767,-0.554 -1.834,-0.388 -2.387,0.377 -0.554,0.764 -0.387,1.83 0.375,2.384 l 10.658,7.74 c 0.305,0.221 0.661,0.335 1.005,0.335 0.524,0 1.047,-0.251 1.38,-0.711 0.557,-0.764 0.389,-1.831 -0.375,-2.385 z"
       inkscape:connector-curvature="0" /><path
       style="fill:#fed8c1;fill-opacity:1"
       id="path20"
       d="m 20.584,52.724 -10.657,7.74 c -0.764,0.554 -0.931,1.621 -0.377,2.385 0.337,0.46 0.857,0.711 1.38,0.711 0.355,0 0.701,-0.114 1.005,-0.335 l 10.658,-7.74 c 0.763,-0.554 0.93,-1.62 0.376,-2.384 -0.555,-0.765 -1.622,-0.931 -2.385,-0.377 z"
       inkscape:connector-curvature="0" /></g></svg>