<?xml version="1.0" encoding="UTF-8" standalone="no"?>
<svg
   xmlns:dc="http://purl.org/dc/elements/1.1/"
   xmlns:cc="http://creativecommons.org/ns#"
   xmlns:rdf="http://www.w3.org/1999/02/22-rdf-syntax-ns#"
   xmlns:svg="http://www.w3.org/2000/svg"
   xmlns="http://www.w3.org/2000/svg"
   xmlns:sodipodi="http://sodipodi.sourceforge.net/DTD/sodipodi-0.dtd"
   xmlns:inkscape="http://www.inkscape.org/namespaces/inkscape"
   version="1.1"
   x="0px"
   y="0px"
   viewBox="0 0 48 48"
   xml:space="preserve"
   id="svg923"
   sodipodi:docname="Home.svg"
   width="48"
   height="48"
   inkscape:version="0.92.2 (5c3e80d, 2017-08-06)"><metadata
     id="metadata929"><rdf:RDF><cc:Work
         rdf:about=""><dc:format>image/svg+xml</dc:format><dc:type
           rdf:resource="http://purl.org/dc/dcmitype/StillImage" /><dc:title></dc:title></cc:Work></rdf:RDF></metadata><defs
     id="defs927" /><sodipodi:namedview
     pagecolor="#ffffff"
     bordercolor="#666666"
     borderopacity="1"
     objecttolerance="10"
     gridtolerance="10"
     guidetolerance="10"
     inkscape:pageopacity="0"
     inkscape:pageshadow="2"
     inkscape:window-width="1366"
     inkscape:window-height="705"
     id="namedview925"
     showgrid="false"
     fit-margin-top="0"
     fit-margin-left="0"
     fit-margin-right="0"
     fit-margin-bottom="0"
     inkscape:zoom="3.9333333"
     inkscape:cx="-7.6525424"
     inkscape:cy="18"
     inkscape:window-x="-8"
     inkscape:window-y="-8"
     inkscape:window-maximized="1"
     inkscape:current-layer="svg923" /><g
     id="g917"
     style="fill:#6a89cc;fill-opacity:1"><rect
       x="21"
       y="28"
       width="6"
       height="7"
       id="rect911"
       style="fill:#6a89cc;fill-opacity:1" /><path
       d="m 13.61,25 h 1.89 c 0.276,0 0.5,0.225 0.5,0.5 V 35 h 4 V 27.5 C 20,27.225 20.224,27 20.5,27 h 7 c 0.275,0 0.5,0.225 0.5,0.5 V 35 h 4 V 25.5 C 32,25.225 32.225,25 32.5,25 h 1.891 L 24,13.254 Z"
       id="path913"
       style="fill:#6a89cc;fill-opacity:1"
       inkscape:connector-curvature="0" /><path
       d="M 24,0 C 10.745,0 0,10.745 0,24 0,37.255 10.745,48 24,48 37.255,48 48,37.255 48,24 48,10.745 37.255,0 24,0 Z M 35.956,25.706 C 35.875,25.885 35.697,26 35.5,26 H 33 v 9.5 c 0,0.275 -0.225,0.5 -0.5,0.5 h -5 -7 -5 C 15.224,36 15,35.775 15,35.5 V 26 h -2.5 c -0.197,0 -0.375,-0.115 -0.456,-0.294 -0.081,-0.181 -0.049,-0.39 0.082,-0.537 l 11.5,-13 c 0.189,-0.215 0.56,-0.215 0.749,0 l 11.5,13 c 0.13,0.147 0.162,0.356 0.081,0.537 z"
       id="path915"
       style="fill:#6a89cc;fill-opacity:1"
       inkscape:connector-curvature="0" /></g></svg>