<?xml version="1.0" encoding="UTF-8" standalone="no"?>
<svg
   xmlns:dc="http://purl.org/dc/elements/1.1/"
   xmlns:cc="http://creativecommons.org/ns#"
   xmlns:rdf="http://www.w3.org/1999/02/22-rdf-syntax-ns#"
   xmlns:svg="http://www.w3.org/2000/svg"
   xmlns="http://www.w3.org/2000/svg"
   xmlns:sodipodi="http://sodipodi.sourceforge.net/DTD/sodipodi-0.dtd"
   xmlns:inkscape="http://www.inkscape.org/namespaces/inkscape"
   version="1.1"
   x="0px"
   y="0px"
   viewBox="0 0 48 48"
   xml:space="preserve"
   id="svg12"
   sodipodi:docname="Play.svg"
   inkscape:version="0.92.2 (5c3e80d, 2017-08-06)"
   width="48"
   height="48"><metadata
     id="metadata18"><rdf:RDF><cc:Work
         rdf:about=""><dc:format>image/svg+xml</dc:format><dc:type
           rdf:resource="http://purl.org/dc/dcmitype/StillImage" /><dc:title></dc:title></cc:Work></rdf:RDF></metadata><defs
     id="defs16" /><sodipodi:namedview
     pagecolor="#ffffff"
     bordercolor="#666666"
     borderopacity="1"
     objecttolerance="10"
     gridtolerance="10"
     guidetolerance="10"
     inkscape:pageopacity="0"
     inkscape:pageshadow="2"
     inkscape:window-width="1366"
     inkscape:window-height="705"
     id="namedview14"
     showgrid="false"
     inkscape:zoom="3.9333333"
     inkscape:cx="-24.940677"
     inkscape:cy="18"
     inkscape:window-x="-8"
     inkscape:window-y="-8"
     inkscape:window-maximized="1"
     inkscape:current-layer="svg12"
     fit-margin-top="0"
     fit-margin-left="0"
     fit-margin-right="0"
     fit-margin-bottom="0" /><g
     id="g6"
     style="fill:#6a89cc;fill-opacity:1"><polygon
       points="15,13.387 15,34.613 32.534,24 "
       id="polygon2"
       style="fill:#6a89cc;fill-opacity:1" /><path
       d="M 24,0 C 10.745,0 0,10.745 0,24 0,37.255 10.745,48 24,48 37.255,48 48,37.255 48,24 48,10.745 37.255,0 24,0 Z m 9.759,24.428 -19,11.5 C 14.68,35.977 14.59,36 14.5,36 14.415,36 14.331,35.979 14.255,35.936 14.098,35.848 14,35.682 14,35.5 v -23 c 0,-0.181 0.098,-0.347 0.255,-0.436 0.156,-0.088 0.351,-0.087 0.504,0.008 l 19,11.5 C 33.908,23.663 34,23.825 34,24 c 0,0.175 -0.092,0.337 -0.241,0.428 z"
       id="path4"
       style="fill:#6a89cc;fill-opacity:1"
       inkscape:connector-curvature="0" /></g></svg>