<?xml version="1.0" encoding="UTF-8" standalone="no"?>
<svg
   xmlns:dc="http://purl.org/dc/elements/1.1/"
   xmlns:cc="http://creativecommons.org/ns#"
   xmlns:rdf="http://www.w3.org/1999/02/22-rdf-syntax-ns#"
   xmlns:svg="http://www.w3.org/2000/svg"
   xmlns="http://www.w3.org/2000/svg"
   xmlns:sodipodi="http://sodipodi.sourceforge.net/DTD/sodipodi-0.dtd"
   xmlns:inkscape="http://www.inkscape.org/namespaces/inkscape"
   version="1.1"
   x="0px"
   y="0px"
   viewBox="0 0 48 48"
   xml:space="preserve"
   id="svg10"
   sodipodi:docname="Send.svg"
   width="48"
   height="48"
   inkscape:version="0.92.2 (5c3e80d, 2017-08-06)"><metadata
     id="metadata16"><rdf:RDF><cc:Work
         rdf:about=""><dc:format>image/svg+xml</dc:format><dc:type
           rdf:resource="http://purl.org/dc/dcmitype/StillImage" /><dc:title></dc:title></cc:Work></rdf:RDF></metadata><defs
     id="defs14" /><sodipodi:namedview
     pagecolor="#ffffff"
     bordercolor="#666666"
     borderopacity="1"
     objecttolerance="10"
     gridtolerance="10"
     guidetolerance="10"
     inkscape:pageopacity="0"
     inkscape:pageshadow="2"
     inkscape:window-width="1366"
     inkscape:window-height="705"
     id="namedview12"
     showgrid="false"
     fit-margin-top="0"
     fit-margin-left="0"
     fit-margin-right="0"
     fit-margin-bottom="0"
     inkscape:zoom="3.9333333"
     inkscape:cx="-7.6525424"
     inkscape:cy="18"
     inkscape:window-x="-8"
     inkscape:window-y="-8"
     inkscape:window-maximized="1"
     inkscape:current-layer="svg10" /><g
     id="g4"
     style="fill:#6a89cc;fill-opacity:1"><path
       d="M 24,0 C 10.745,0 0,10.745 0,24 0,37.255 10.745,48 24,48 37.255,48 48,37.255 48,24 48,10.745 37.255,0 24,0 Z m -6.854,18.146 6,-6 c 0.046,-0.047 0.102,-0.084 0.163,-0.108 0.122,-0.05 0.26,-0.05 0.382,0 0.062,0.024 0.117,0.063 0.163,0.108 l 6,6 c 0.195,0.194 0.195,0.512 0,0.707 C 29.756,18.951 29.628,19 29.5,19 29.372,19 29.244,18.951 29.146,18.854 L 24,13.707 V 32.5 C 24,32.775 23.776,33 23.5,33 23.224,33 23,32.775 23,32.5 V 13.707 l -5.146,5.146 c -0.195,0.194 -0.512,0.194 -0.707,0 -0.195,-0.195 -0.196,-0.511 -10e-4,-0.707 z M 35,35.5 c 0,0.275 -0.225,0.5 -0.5,0.5 h -22 C 12.224,36 12,35.775 12,35.5 v -11 c 0,-0.275 0.224,-0.5 0.5,-0.5 0.276,0 0.5,0.225 0.5,0.5 V 35 H 34 V 24.5 c 0,-0.275 0.225,-0.5 0.5,-0.5 0.275,0 0.5,0.225 0.5,0.5 z"
       id="path2"
       style="fill:#6a89cc;fill-opacity:1"
       inkscape:connector-curvature="0" /></g></svg>