<?xml version="1.0" encoding="UTF-8" standalone="no"?>
<svg
   xmlns:dc="http://purl.org/dc/elements/1.1/"
   xmlns:cc="http://creativecommons.org/ns#"
   xmlns:rdf="http://www.w3.org/1999/02/22-rdf-syntax-ns#"
   xmlns:svg="http://www.w3.org/2000/svg"
   xmlns="http://www.w3.org/2000/svg"
   xmlns:sodipodi="http://sodipodi.sourceforge.net/DTD/sodipodi-0.dtd"
   xmlns:inkscape="http://www.inkscape.org/namespaces/inkscape"
   version="1.1"
   x="0px"
   y="0px"
   viewBox="0 0 48 48"
   xml:space="preserve"
   id="svg10"
   sodipodi:docname="Undo.svg"
   width="48"
   height="48"
   inkscape:version="0.92.2 (5c3e80d, 2017-08-06)"><metadata
     id="metadata16"><rdf:RDF><cc:Work
         rdf:about=""><dc:format>image/svg+xml</dc:format><dc:type
           rdf:resource="http://purl.org/dc/dcmitype/StillImage" /><dc:title /></cc:Work></rdf:RDF></metadata><defs
     id="defs14" /><sodipodi:namedview
     pagecolor="#ffffff"
     bordercolor="#666666"
     borderopacity="1"
     objecttolerance="10"
     gridtolerance="10"
     guidetolerance="10"
     inkscape:pageopacity="0"
     inkscape:pageshadow="2"
     inkscape:window-width="1366"
     inkscape:window-height="705"
     id="namedview12"
     showgrid="false"
     fit-margin-top="0"
     fit-margin-left="0"
     fit-margin-right="0"
     fit-margin-bottom="0"
     inkscape:zoom="2.7812867"
     inkscape:cx="-107.6832"
     inkscape:cy="5.4672209"
     inkscape:window-x="-8"
     inkscape:window-y="-8"
     inkscape:window-maximized="1"
     inkscape:current-layer="svg10" /><g
     id="g4"><path
       d="M 24,0 C 10.745,0 0,10.745 0,24 0,37.255 10.745,48 24,48 37.255,48 48,37.255 48,24 48,10.745 37.255,0 24,0 Z"
       id="path2"
       inkscape:connector-curvature="0"
       sodipodi:nodetypes="sssss"
       style="fill:#6a89cc;fill-opacity:0.94117647" /></g><path
     style="fill-opacity:1;stroke-width:0.32515708;fill:#fed8c1"
     inkscape:connector-curvature="0"
     d="m 23.947151,36.793836 c -0.0065,0 -0.01301,0 -0.01951,0 -6.03589,0 -11.098261,-4.329792 -12.036339,-10.271063 -0.05593,-0.354746 -0.389213,-0.597964 -0.743959,-0.542036 -0.354747,0.05593 -0.596989,0.390513 -0.541062,0.74526 1.038877,6.576302 6.640358,11.368467 13.319409,11.368467 0.0071,0 0.01398,0 0.02146,0 3.766945,0 7.385618,-1.519134 9.930948,-4.166563 2.422745,-2.520293 3.677851,-5.840797 3.534132,-9.348591 -0.30955,-7.547222 -6.232937,-13.459553 -13.485566,-13.459553 -4.954418,0 -9.5232,2.778792 -11.856853,7.063063 v -6.100923 c 0,-0.358973 -0.29134,-0.650314 -0.650314,-0.650314 -0.358973,0 -0.650314,0.291341 -0.650314,0.650314 v 8.128927 c 0,0.358974 0.291341,0.650314 0.650314,0.650314 h 8.128927 c 0.358974,0 0.650314,-0.29134 0.650314,-0.650314 0,-0.358973 -0.29134,-0.650314 -0.650314,-0.650314 H 12.83881 c 1.961998,-4.297276 6.326256,-7.140775 11.088181,-7.140775 6.552566,0 11.904977,5.364117 12.185587,12.211925 0.129087,3.150122 -0.997257,6.132788 -3.171907,8.394905 -2.301462,2.393482 -5.578395,3.767271 -8.99352,3.767271 z"
     id="path837" /></svg>