<?xml version="1.0" encoding="UTF-8" standalone="no"?>
<svg
   xmlns:dc="http://purl.org/dc/elements/1.1/"
   xmlns:cc="http://creativecommons.org/ns#"
   xmlns:rdf="http://www.w3.org/1999/02/22-rdf-syntax-ns#"
   xmlns:svg="http://www.w3.org/2000/svg"
   xmlns="http://www.w3.org/2000/svg"
   xmlns:sodipodi="http://sodipodi.sourceforge.net/DTD/sodipodi-0.dtd"
   xmlns:inkscape="http://www.inkscape.org/namespaces/inkscape"
   version="1.1"
   x="0px"
   y="0px"
   viewBox="0 0 100 125"
   enable-background="new 0 0 100 100"
   xml:space="preserve"
   id="svg28"
   sodipodi:docname="Allumer.svg"
   inkscape:version="0.92.2 (5c3e80d, 2017-08-06)"><metadata
     id="metadata34"><rdf:RDF><cc:Work
         rdf:about=""><dc:format>image/svg+xml</dc:format><dc:type
           rdf:resource="http://purl.org/dc/dcmitype/StillImage" /></cc:Work></rdf:RDF></metadata><defs
     id="defs32" /><sodipodi:namedview
     pagecolor="#ffffff"
     bordercolor="#666666"
     borderopacity="1"
     objecttolerance="10"
     gridtolerance="10"
     guidetolerance="10"
     inkscape:pageopacity="0"
     inkscape:pageshadow="2"
     inkscape:window-width="1366"
     inkscape:window-height="705"
     id="namedview30"
     showgrid="false"
     inkscape:zoom="1.888"
     inkscape:cx="40.730932"
     inkscape:cy="62.5"
     inkscape:window-x="-8"
     inkscape:window-y="-8"
     inkscape:window-maximized="1"
     inkscape:current-layer="svg28" /><g
     id="g22"
     style="fill:#ffffff"><path
       d="M35.125,72.973c0,0.942,0.761,1.705,1.703,1.705h15.826l-16.359,5.46c-0.899,0.292-1.381,1.265-1.089,2.153   c0.241,0.722,0.913,1.173,1.622,1.173c0.178,0,0.365-0.032,0.544-0.085l26.336-8.785c0.795-0.262,1.288-1.066,1.15-1.894   c-0.136-0.825-0.847-1.433-1.684-1.433H36.827C35.886,71.268,35.125,72.029,35.125,72.973z"
       id="path2"
       style="fill:#ffffff" /><path
       d="M61.959,89.331c-0.029,0.031-3.981,3.89-11.953,3.89c-4.3,0-7.426-1.107-9.394-2.144l23.094-7.698   c0.9-0.303,1.38-1.275,1.089-2.164c-0.306-0.899-1.267-1.382-2.167-1.077l-26.334,8.774c-0.566,0.188-0.994,0.659-1.129,1.233   c-0.137,0.577,0.04,1.183,0.459,1.6c0.199,0.199,4.998,4.887,14.381,4.887c9.37,0,14.172-4.688,14.372-4.887   c0.669-0.668,0.669-1.756,0-2.414C63.707,88.662,62.629,88.662,61.959,89.331z"
       id="path4"
       style="fill:#ffffff" /><path
       d="M50.006,5.418c-15.471,0-28.051,12.581-28.051,28.04c0,7.771,4.182,13.984,7.865,19.456   c2.844,4.213,5.305,7.854,5.305,11.284c0,0.941,0.761,1.704,1.703,1.704s1.716-0.763,1.716-1.704c0-4.476-2.868-8.713-5.89-13.199   c-3.587-5.313-7.289-10.804-7.289-17.541c0-13.575,11.055-24.63,24.642-24.63c13.577,0,24.63,11.056,24.63,24.63   c0,6.737-3.713,12.227-7.289,17.541c-3.023,4.486-5.878,8.724-5.878,13.199c0,0.941,0.762,1.704,1.704,1.704   c0.941,0,1.706-0.763,1.706-1.704c0-3.43,2.457-7.071,5.301-11.284c3.683-5.472,7.866-11.684,7.866-19.456   C78.047,17.999,65.463,5.418,50.006,5.418z"
       id="path6"
       style="fill:#ffffff" /><path
       d="M51.71,15.897c0-0.941-0.764-1.705-1.704-1.705c-10.627,0-19.276,8.65-19.276,19.265c0,0.953,0.764,1.716,1.704,1.716   c0.952,0,1.716-0.763,1.716-1.716c0-8.732,7.112-15.845,15.856-15.845C50.946,17.612,51.71,16.838,51.71,15.897z"
       id="path8"
       style="fill:#ffffff" /><path
       d="M20.584,14.203c0.304,0.219,0.66,0.324,1.005,0.324c0.533,0,1.046-0.24,1.38-0.701c0.554-0.763,0.386-1.83-0.376-2.385   l-10.658-7.75c-0.764-0.554-1.83-0.377-2.385,0.387C8.996,4.832,9.164,5.897,9.927,6.463L20.584,14.203z"
       id="path10"
       style="fill:#ffffff" /><path
       d="M78.412,14.527c0.347,0,0.702-0.105,1.007-0.324l10.656-7.74c0.764-0.566,0.932-1.631,0.375-2.385   c-0.554-0.764-1.621-0.941-2.385-0.387l-10.658,7.75c-0.762,0.555-0.929,1.622-0.375,2.385   C77.368,14.287,77.88,14.527,78.412,14.527z"
       id="path12"
       style="fill:#ffffff" /><path
       d="M98.297,31.753h-13.17c-0.951,0-1.714,0.763-1.714,1.704c0,0.953,0.763,1.716,1.714,1.716h13.17   c0.939,0,1.703-0.763,1.703-1.716C100,32.517,99.236,31.753,98.297,31.753z"
       id="path14"
       style="fill:#ffffff" /><path
       d="M16.59,33.458c0-0.941-0.764-1.704-1.706-1.704H1.705C0.765,31.753,0,32.517,0,33.458c0,0.953,0.765,1.716,1.705,1.716   h13.179C15.826,35.173,16.59,34.41,16.59,33.458z"
       id="path16"
       style="fill:#ffffff" /><path
       d="M79.419,52.724c-0.767-0.554-1.834-0.388-2.387,0.377c-0.554,0.764-0.387,1.83,0.375,2.384l10.658,7.74   c0.305,0.221,0.661,0.335,1.005,0.335c0.524,0,1.047-0.251,1.38-0.711c0.557-0.764,0.389-1.831-0.375-2.385L79.419,52.724z"
       id="path18"
       style="fill:#ffffff" /><path
       d="M20.584,52.724l-10.657,7.74c-0.764,0.554-0.931,1.621-0.377,2.385c0.337,0.46,0.857,0.711,1.38,0.711   c0.355,0,0.701-0.114,1.005-0.335l10.658-7.74c0.763-0.554,0.93-1.62,0.376-2.384C22.414,52.336,21.347,52.17,20.584,52.724z"
       id="path20"
       style="fill:#ffffff" /></g></svg>