<?xml version="1.0" encoding="UTF-8" standalone="no"?>
<!-- Created with Inkscape (http://www.inkscape.org/) -->

<svg
   xmlns:dc="http://purl.org/dc/elements/1.1/"
   xmlns:cc="http://creativecommons.org/ns#"
   xmlns:rdf="http://www.w3.org/1999/02/22-rdf-syntax-ns#"
   xmlns:svg="http://www.w3.org/2000/svg"
   xmlns="http://www.w3.org/2000/svg"
   xmlns:sodipodi="http://sodipodi.sourceforge.net/DTD/sodipodi-0.dtd"
   xmlns:inkscape="http://www.inkscape.org/namespaces/inkscape"
   width="210mm"
   height="297mm"
   viewBox="0 0 210 297"
   version="1.1"
   id="svg8"
   sodipodi:docname="Lightbeam.svg"
   inkscape:version="0.92.2 (5c3e80d, 2017-08-06)">
  <defs
     id="defs2" />
  <sodipodi:namedview
     id="base"
     pagecolor="#fb0080"
     bordercolor="#666666"
     borderopacity="1.0"
     inkscape:pageopacity="0"
     inkscape:pageshadow="2"
     inkscape:zoom="1"
     inkscape:cx="278.44295"
     inkscape:cy="296.86095"
     inkscape:document-units="mm"
     inkscape:current-layer="g908"
     showgrid="false"
     inkscape:window-width="1366"
     inkscape:window-height="705"
     inkscape:window-x="-8"
     inkscape:window-y="-8"
     inkscape:window-maximized="1" />
  <metadata
     id="metadata5">
    <rdf:RDF>
      <cc:Work
         rdf:about="">
        <dc:format>image/svg+xml</dc:format>
        <dc:type
           rdf:resource="http://purl.org/dc/dcmitype/StillImage" />
        <dc:title></dc:title>
      </cc:Work>
    </rdf:RDF>
  </metadata>
  <g
     inkscape:label="Calque 1"
     inkscape:groupmode="layer"
     id="layer1">
    <g
       id="g908">
      <ellipse
         ry="6.147747"
         rx="48.280758"
         cy="190.7205"
         cx="99.470833"
         id="path12"
         style="fill:#020000;fill-opacity:1;stroke:#ffffff;stroke-width:1.0831821;stroke-miterlimit:4;stroke-dasharray:none;stroke-opacity:1" />
      <path
         sodipodi:nodetypes="cc"
         inkscape:connector-curvature="0"
         id="path16"
         d="M 89.818772,265 H 110.09883"
         style="fill:none;stroke:#0d040d;stroke-width:4;stroke-linecap:round;stroke-linejoin:miter;stroke-opacity:1;stroke-miterlimit:4;stroke-dasharray:none" />
      <path
         inkscape:connector-curvature="0"
         id="path20"
         d="m 109.9765,265.12303 36.97368,-70.15259"
         style="fill:none;stroke:#000000;stroke-width:3.75688982;stroke-linecap:round;stroke-linejoin:miter;stroke-miterlimit:4;stroke-dasharray:none;stroke-opacity:1" />
      <path
         inkscape:connector-curvature="0"
         id="path839"
         d="m 89.358686,263.40059 c -0.729017,-1.21949 -37.57871,-70.0607 -37.815504,-70.6455 -0.06799,-0.16791 0.44735,-0.0667 1.145199,0.22486 3.211518,1.34185 14.145342,2.83734 26.570683,3.63423 8.258199,0.52964 32.834906,0.5304 41.388396,0.001 11.98158,-0.74118 21.27298,-1.9429 25.44338,-3.29077 1.00093,-0.32349 1.90899,-0.49905 2.01792,-0.39013 0.10892,0.10892 -8.43565,16.28473 -18.98794,35.94624 l -19.18598,35.7482 h -9.9209 -9.9209 z"
         style="fill:none;fill-opacity:1;stroke:none;stroke-width:0.37797621;stroke-opacity:1" />
      <path
         inkscape:connector-curvature="0"
         id="path841"
         d="m 83.227814,196.20827 c -20.332941,-1.00814 -34.40081,-3.56841 -32.459567,-5.90746 1.56197,-1.88206 10.887178,-3.57848 26.033973,-4.73604 8.234939,-0.62934 38.24619,-0.62984 46.49107,-7.9e-4 15.86797,1.21067 26.08036,3.22325 26.08036,5.13972 0,1.94836 -10.64782,4.05925 -25.89137,5.13286 -7.76019,0.54656 -32.179936,0.77204 -40.254466,0.3717 z"
         style="fill:none;fill-opacity:1;stroke:none;stroke-width:0.37800002;stroke-miterlimit:4;stroke-dasharray:none;stroke-opacity:1" />
      <path
         inkscape:connector-curvature="0"
         id="path20-9"
         d="M 90.003715,265.10463 53.136514,194.89487"
         style="fill:none;stroke:#000000;stroke-width:3.76980972;stroke-linecap:round;stroke-linejoin:miter;stroke-miterlimit:4;stroke-dasharray:none;stroke-opacity:1"
         sodipodi:nodetypes="cc" />
      <path
         style="fill:#020000;fill-opacity:1;stroke:#000000;stroke-width:2.93978238;stroke-linecap:round;stroke-miterlimit:4;stroke-dasharray:none;stroke-opacity:1"
         d="M 274.67124,863.71907 C 236.2216,792.0952 204.63983,733.17786 204.48954,732.79163 c -0.1626,-0.41785 0.26693,-0.4928 1.06066,-0.18506 0.73366,0.28444 4.9932,1.27287 9.46565,2.19651 74.0459,15.29167 250.13499,15.44827 324.58303,0.28866 3.70619,-0.75468 7.82169,-1.6828 9.14555,-2.06247 1.32386,-0.37968 2.48431,-0.61305 2.57876,-0.5186 0.0945,0.0945 -31.37304,58.95565 -69.92777,130.80267 l -70.09951,130.63092 h -33.35812 -33.35811 z"
         id="path1049"
         inkscape:connector-curvature="0"
         transform="scale(0.26458333)" />
    </g>
  </g>
</svg>
