<svg xmlns="http://www.w3.org/2000/svg" xmlns:xlink="http://www.w3.org/1999/xlink" version="1.1" x="0px" y="0px" viewBox="0 0 64 80" enable-background="new 0 0 64 64" xml:space="preserve"><g><path fill="#000000" d="M62.45,24.998l0,0.141c0.196,2.449-0.835,4.407-2.903,5.779c-2.727,1.775-5.932,1.172-8.413-1.435   c-0.26-0.258-1.274-0.891-1.675-0.819c-0.447,0.095-0.728,0.779-0.844,1.345c-0.023,0.188-0.046,0.353-0.046,0.471   c0.029,1.861,0.176,3.721,0.276,5.581c0.001,0.259,0.025,0.494,0.026,0.754c0.052,1.602,0.033,3.227,0.015,4.899l0.003,1.013   c-0.448-0.022-0.942-0.044-1.437-0.066c-2.874-0.133-5.748-0.266-8.621-0.351c-0.73-0.021-1.484-0.043-2.214-0.064   c-0.094,0-0.235,0.001-0.353,0.048c-0.471,0.096-1.012,0.38-1.081,0.639c-0.279,1.249,1.208,2.352,1.847,3.198   c0.733,0.964,1.231,2.022,1.329,3.246c0.147,1.907-0.601,3.817-2.01,5.117c-2.678,2.457-6.8,2.164-9.14-0.609   c-2.269-2.702-1.833-6.401,0.939-9.047c0.963-0.898,0.865-2.005-0.054-2.402c-0.236-0.094-0.542-0.163-0.896-0.162   c-0.66,0.002-1.319,0.028-1.978,0.053c-1.013,0.05-2.002,0.124-3.014,0.15c-2.379,0.054-4.758,0.038-7.278,0.045   c-0.001-0.212,0.022-0.471,0.021-0.707c0.022-0.565,0.067-1.201,0.089-1.814c0.088-2.049,0.2-4.122,0.288-6.172   c0.021-0.824,0.393-2.639,0.13-3.816c-0.095-0.447-0.261-0.8-0.568-0.988c-1.345-0.867-3.691,2.178-4.915,2.629   c-1.859,0.665-3.956,0.459-5.608-0.619c-1.959-1.29-2.978-3.524-2.82-5.786c0.045-0.73,0.231-1.485,0.559-2.216   c1.334-2.83,4.604-4.348,7.574-3.273c1.155,0.444,2.1,1.454,3.186,2.157c1.416,0.867,2.381,0.841,2.541-1.02   c0.023-0.165,0.023-0.306,0.022-0.471c0.021-0.848-0.076-1.696-0.149-2.543c-0.15-3.061-0.301-6.099-0.428-9.279   c3.58-0.199,6.971-0.421,10.338-0.573c0.283-0.024,0.565-0.025,0.848-0.05c0.636-0.025,1.365-0.263,1.955-0.077   c0.306,0.07,0.566,0.281,0.756,0.681c0.64,1.293-0.678,1.698-1.312,2.383c-1.902,1.984-2.412,4.812-1.25,7.235   c1.185,2.54,3.639,3.899,6.535,3.608c2.59-0.243,4.728-2.11,5.403-4.727c0.722-2.758-0.25-4.898-2.281-6.753   c-0.946-0.836-0.932-1.992,0.323-2.309c0.212-0.071,0.447-0.095,0.612-0.096c0.66-0.002,1.319-0.004,1.979,0.041   c0.989,0.044,2.002,0.112,2.992,0.179c2.309,0.111,4.617,0.245,7.044,0.356l0.235-0.001c-0.065,1.932-0.154,3.816-0.242,5.677   c-0.089,1.861-0.13,3.698-0.172,5.559c0,0.141-0.023,0.306-0.022,0.518c0.003,0.966,0.101,2.379,1.067,2.446   c0.754,0.045,1.551-1.088,2.045-1.537c1.879-1.819,4.068-2.367,6.52-1.527C60.741,20.504,62.183,22.384,62.45,24.998z"/></g><text x="0" y="79" fill="#000000" font-size="5px" font-weight="bold" font-family="'Helvetica Neue', Helvetica, Arial-Unicode, Arial, Sans-serif">Created by Delwar Hossain</text><text x="0" y="84" fill="#000000" font-size="5px" font-weight="bold" font-family="'Helvetica Neue', Helvetica, Arial-Unicode, Arial, Sans-serif">from the Noun Project</text></svg>