<svg xmlns="http://www.w3.org/2000/svg" xmlns:xlink="http://www.w3.org/1999/xlink" version="1.1" x="0px" y="0px" viewBox="-489 491 100 125" enable-background="new -489 491 100 100" xml:space="preserve"><path d="M-404.4,514.1h-25c-1.9,0-3.8,0-3.8-1.9c0-3.8,3.8-5.8,3.8-11.5s-3.8-9.6-9.6-9.6s-9.6,3.8-9.6,9.6s3.8,7.7,3.8,11.5  c0,1.9-1.9,1.9-3.8,1.9h-25c-3.8,0-3.8,0-3.8,3.8v25c0,1.9,0,3.8,1.9,3.8c3.8,0,5.8-3.8,11.5-3.8s9.6,3.8,9.6,9.6s-3.8,9.6-9.6,9.6  s-7.7-3.8-11.5-3.8c-1.9,0-1.9,1.9-1.9,3.8v25c0,3.8,0,3.8,3.8,3.8h25c1.9,0,3.8,0,3.8-1.9c0-3.8-3.8-5.8-3.8-11.5s3.8-9.6,9.6-9.6  s9.6,3.8,9.6,9.6s-3.8,7.7-3.8,11.5c0,1.9,1.9,1.9,3.8,1.9h25c3.8,0,3.8,0,3.8-3.8v-25c0-1.9,0-3.8-1.9-3.8c-3.8,0-5.8,3.8-11.5,3.8  s-9.6-3.8-9.6-9.6s3.8-9.6,9.6-9.6s7.7,3.8,11.5,3.8c1.9,0,1.9-1.9,1.9-3.8v-25C-400.5,514.1-400.5,514.1-404.4,514.1z"/><text x="-489" y="606" fill="#000000" font-size="5px" font-weight="bold" font-family="'Helvetica Neue', Helvetica, Arial-Unicode, Arial, Sans-serif">Created by Thomas Helbig</text><text x="-489" y="611" fill="#000000" font-size="5px" font-weight="bold" font-family="'Helvetica Neue', Helvetica, Arial-Unicode, Arial, Sans-serif">from the Noun Project</text></svg>