<svg xmlns="http://www.w3.org/2000/svg" xmlns:xlink="http://www.w3.org/1999/xlink" version="1.1" x="0px" y="0px" viewBox="0 0 95 118.75" enable-background="new 0 0 95 95" xml:space="preserve"><path d="M16.66,86.245c0.779-0.389,0.973-0.974,0.584-1.753c-3.12-6.433-4.459-12.598-4.02-18.495  c0.439-5.898,2.069-11.209,4.897-15.938c2.826-4.724,6.726-8.94,11.696-12.646c6.821-4.971,14.668-8.406,23.54-10.308  c8.868-1.901,17.493-1.828,25.877,0.218c-1.561,0.49-6.384,2.632-14.475,6.435c-0.781,0.291-0.999,0.854-0.657,1.682  c0.342,0.83,0.951,1.047,1.826,0.657c0.78-0.293,2.169-0.923,4.168-1.899c1.997-0.974,3.509-1.68,4.532-2.119  s2.34-0.974,3.947-1.611c1.609-0.63,3.094-1.143,4.459-1.533c0.486-0.098,0.828-0.388,1.024-0.876  c0.194-0.098,0.34-0.293,0.438-0.588c0.195-0.679,0-1.216-0.584-1.607l-0.294-0.291c-3.314-2.927-5.849-5.507-7.602-7.749  c-1.755-2.241-3.021-4.971-3.801-8.189c-0.197-0.875-0.732-1.217-1.608-1.023c-0.877,0.197-1.221,0.73-1.023,1.609  c1.265,5.166,4.094,9.844,8.479,14.035c-8.383-1.755-17.058-1.633-26.023,0.366C43.073,26.62,35.13,30.201,28.21,35.365  c-5.263,3.801-9.407,8.239-12.428,13.305c-3.022,5.069-4.776,10.771-5.264,17.107c-0.486,6.335,0.974,12.963,4.387,19.884  C15.294,86.44,15.879,86.635,16.66,86.245z"/><text x="0" y="110" fill="#000000" font-size="5px" font-weight="bold" font-family="'Helvetica Neue', Helvetica, Arial-Unicode, Arial, Sans-serif">Created by David Alexander Slaager</text><text x="0" y="115" fill="#000000" font-size="5px" font-weight="bold" font-family="'Helvetica Neue', Helvetica, Arial-Unicode, Arial, Sans-serif">from the Noun Project</text></svg>