<?xml version="1.0" encoding="UTF-8" standalone="no"?>
<svg
   xmlns:dc="http://purl.org/dc/elements/1.1/"
   xmlns:cc="http://creativecommons.org/ns#"
   xmlns:rdf="http://www.w3.org/1999/02/22-rdf-syntax-ns#"
   xmlns:svg="http://www.w3.org/2000/svg"
   xmlns="http://www.w3.org/2000/svg"
   xmlns:sodipodi="http://sodipodi.sourceforge.net/DTD/sodipodi-0.dtd"
   xmlns:inkscape="http://www.inkscape.org/namespaces/inkscape"
   data-name="Layer 1"
   viewBox="0 0 48 60"
   x="0px"
   y="0px"
   version="1.1"
   id="svg16"
   sodipodi:docname="noun_629628_cc.svg"
   inkscape:version="0.92.2 (5c3e80d, 2017-08-06)">
  <metadata
     id="metadata22">
    <rdf:RDF>
      <cc:Work
         rdf:about="">
        <dc:format>image/svg+xml</dc:format>
        <dc:type
           rdf:resource="http://purl.org/dc/dcmitype/StillImage" />
      </cc:Work>
    </rdf:RDF>
  </metadata>
  <defs
     id="defs20" />
  <sodipodi:namedview
     pagecolor="#ffffff"
     bordercolor="#666666"
     borderopacity="1"
     objecttolerance="10"
     gridtolerance="10"
     guidetolerance="10"
     inkscape:pageopacity="0"
     inkscape:pageshadow="2"
     inkscape:window-width="1366"
     inkscape:window-height="705"
     id="namedview18"
     showgrid="false"
     inkscape:zoom="2.7812867"
     inkscape:cx="27.315961"
     inkscape:cy="15.496522"
     inkscape:window-x="-8"
     inkscape:window-y="-8"
     inkscape:window-maximized="1"
     inkscape:current-layer="svg16" />
  <title
     id="title2">_</title>
  <rect
     x="16"
     y="20"
     width="8"
     height="1"
     id="rect4" />
  <rect
     x="16"
     y="18"
     width="8"
     height="1"
     id="rect6" />
  <rect
     x="16"
     y="16"
     width="8"
     height="1"
     id="rect8" />
  <path
     d="M 38,2 27,13 H 12 l -3,3 v 5 l 3,3 h 4 c 8,0 0,0 8,0 h 3 L 38,35 V 33.58 L 29.22,24.8 38,28 V 9 L 29.22,12.19 38,3.41 Z M 10,20.58 v -4.17 l 2,-2 v 8.17 z M 13,23 v -9 h 14 v 9 z m 24,3.57 -9,-3.27 v -9.6 l 9,-3.27 z"
     id="path10"
     inkscape:connector-curvature="0"
     sodipodi:nodetypes="cccccccccccccccccccccccccccccccc" />
</svg>
