<svg xmlns="http://www.w3.org/2000/svg" data-name="Layer 1" viewBox="0 0 100 125" x="0px" y="0px"><defs><style>.cls-1{fill:#202020;}</style></defs><title>arrows2</title><path class="cls-1" d="M54.78,38.39a.08.08,0,0,0,0-.1S54.76,38.37,54.78,38.39Z"/><path class="cls-1" d="M59.25,34.58c.06.09.11,0,.19,0Z"/><path class="cls-1" d="M61.29,32.63l0,0-.06-.13Z"/><path class="cls-1" d="M63,31.64c-.05-.11-.06-.17,0-.21l-.14-.14S62.95,31.53,63,31.64Z"/><polygon class="cls-1" points="20.16 77.25 20.16 77.21 20.04 77.11 20.16 77.25"/><path class="cls-1" d="M52.14,39.82h0C52.16,39.76,52.15,39.78,52.14,39.82Z"/><path class="cls-1" d="M39.91,52.1c.32,0,0,.45.42.43C40.23,52.48,40.2,52,39.91,52.1Z"/><path class="cls-1" d="M48.13,44.35s-.08,0-.1.06h0S48.06,44.36,48.13,44.35Z"/><polygon class="cls-1" points="46.88 45.57 46.94 45.59 46.97 45.54 46.88 45.57"/><path class="cls-1" d="M25.8,71.94a1.13,1.13,0,0,1-.25-.09C25.73,72,25.63,72.2,25.8,71.94Z"/><path class="cls-1" d="M48.83,46.76a.48.48,0,0,0-.25,0,.28.28,0,0,0,0,.07Z"/><path class="cls-1" d="M26.43,67.93s0,0,0,0h.08l-.05-.08Z"/><path class="cls-1" d="M59.51,34.54l0,0,0,0Z"/><polygon class="cls-1" points="33.44 62.86 33.39 62.81 33.41 62.89 33.44 62.86"/><path class="cls-1" d="M64.12,32.2l-.06-.1h0Z"/><path class="cls-1" d="M53,42.32l0,0C53,42.45,53,42.4,53,42.32Z"/><path class="cls-1" d="M55.9,38.83a.82.82,0,0,1,0,.19C56,39,56,38.95,55.9,38.83Z"/><polygon class="cls-1" points="49.64 45.98 49.64 45.98 49.61 46 49.64 45.98"/><path class="cls-1" d="M55.72,39.16a.17.17,0,0,0,.16-.13C55.82,39.05,55.74,39.08,55.72,39.16Z"/><path class="cls-1" d="M67.39,29.73l0,0,0,0Z"/><path class="cls-1" d="M67.42,29.61a.09.09,0,0,0,0-.12Z"/><path class="cls-1" d="M63,31c0,.15,0,.18.13.17S63.05,31.08,63,31Z"/><path class="cls-1" d="M57.52,35.63c-.08.11.06.08.15.2Z"/><polygon class="cls-1" points="57.52 37.73 57.72 37.76 57.61 37.55 57.52 37.73"/><polygon class="cls-1" points="55.73 36.84 55.63 37.05 55.71 36.9 55.73 36.84"/><path class="cls-1" d="M46.92,45.18l.25.2C47.2,45.27,47,45,46.92,45.18Z"/><path class="cls-1" d="M43.46,49.08c-.15-.07-.33,0-.28.14C43.27,49.14,43.44,49.15,43.46,49.08Z"/><polygon class="cls-1" points="32.43 60.01 32.36 60.22 32.44 60.16 32.43 60.01"/><path class="cls-1" d="M69,28.65a.78.78,0,0,0-.74-.23c.32.14.18.17.55.34,0,.13-.12.21-.24.18.08,0-.09.18.11.26.27-.13.3-.35.09-.57C68.85,28.59,68.94,28.63,69,28.65Z"/><path class="cls-1" d="M68.17,27.58h.09l0,0Z"/><path class="cls-1" d="M68,30.47l0,0-.14,0Z"/><path class="cls-1" d="M68.3,26.83h0C68.26,26.76,68.27,26.8,68.3,26.83Z"/><path class="cls-1" d="M63.2,26.41a1.86,1.86,0,0,0,.66.39C63.46,26.69,63.68,26.52,63.2,26.41Z"/><path class="cls-1" d="M68.87,32.27s0-.09,0,0l0,.09C68.84,32.25,68.84,32.2,68.87,32.27Z"/><polygon class="cls-1" points="68.24 31.43 68.24 31.52 68.27 31.53 68.24 31.43"/><path class="cls-1" d="M65.9,33a1,1,0,0,1,.09-.26C65.88,32.94,65.59,32.78,65.9,33Z"/><path class="cls-1" d="M68.2,27.52l0,0,.1-.08C68.25,27.51,68.21,27.53,68.2,27.52Z"/><path class="cls-1" d="M69.9,36.72l-.18.26A.6.6,0,0,0,69.9,36.72Z"/><path class="cls-1" d="M74.06,20.24c-.15.55-.56.94-.57.73l.19-.3.13-.23c-.25.23-.14.21-.16.27a.23.23,0,0,1-.06.08l-.26.24c-.28.07.14-.45.48-.7l-.57.35a4,4,0,0,1,.37-.44.58.58,0,0,1-.51.15.83.83,0,0,0-.66.33l0-.11c-1.13.44-1.64.76-2.51,1.11.06.28-.32.36-.33.61a4.25,4.25,0,0,0-1.26.18c-.24.25,0,.26-.07.46-.11-.23-.53,0-.38-.3a4.77,4.77,0,0,0-1.19.74c.11.07.2.08.19.18a.23.23,0,0,1-.33-.12l0,0c-.58.64-1.93,0-2.3.67l0,0-.49.49c-.29.07.09-.24-.17-.31a1,1,0,0,1-.42.35,4.34,4.34,0,0,1-.64.24,3,3,0,0,0-1.16.52,2.92,2.92,0,0,0-1.44.2l-.14-.08c-.3,0-.87.25-.79.38l.09.05a6.18,6.18,0,0,1-2,.66h.47c.15.13-.55.1-.85.18.37,0,.67-.09.75,0a1.52,1.52,0,0,0-.38.25,24.41,24.41,0,0,1,3.06,1.32c.38.18.72.38,1.08.59.12.14.4.31.13.55.48-.21.74.38,1.21.44,0,0-.12,0-.13,0,.14.18.09.33.14.49.28-.27.6-.11.9-.17,0,.46-.43.23-.61.56.2-.25.56.08.67-.18,0,.31.06.21-.07.51l-.09,0c.2.43-.37.17-.44.35.23.29-.19.35-.33.63-.06-.11-.54.19-.83.26l0-.05c.2.31-.06.44-.16.62a.47.47,0,0,1-.14-.41l-.14.12a.32.32,0,0,1,0,.31l-.14-.24c-.18.17-.18.57-.54.63.15.21.65.38.51.73-.1-.1-.26-.27-.23-.37s0,.16-.09.15l0-.27c-.18,0,.07.2,0,.26-.13-.15-.16-.05-.25-.18s.13,0,.11-.09a.53.53,0,0,1-.46,0c.08.08.17.2.12.29s-.22-.13-.39-.11c0,.14-.17.14,0,.37-.06,0-.16,0-.23-.09,0,.18-.43.42-.12.57h0v0c-.13.5-.78.45-1,.82l-.06-.08c-.12.25-.38.41-.38.69-.06,0-.25,0-.3-.13-.1.18,0,.28-.36.34,0-.26-.15-.07.07-.23-.24.1-.39,0-.41.4-.1-.25-.35-.11-.39,0l.25,0a.78.78,0,0,1-.28.24l-.17-.29c-.65,0-.23,1.13-1,.88.05.26.32-.06.41.22-.21.12-.71-.07-.76,0-.36.08.1.56-.24.69.11.06.35.27.24.52s-.55-.18-.5-.35a.06.06,0,0,1,.11,0c0-.08.07-.19-.09-.22l.06.11c-.17,0-.4.21-.47,0-.06.2.07.2.21.15-.34.07-.36.31-.66.43.08,0,.21.09.17.12-.43.2,0,.3-.19.55-.25,0-.24-.36-.37,0-.22,0-.24-.21-.25-.33-.05.36-.49.25-.64.32l0-.17a.38.38,0,0,1-.14.2l.22.12c-.09,0-.15.08-.21,0,0,.18.32.24.33.52-.17,0-.17.34-.42.13.34-.17-.24-.21,0-.45a.22.22,0,0,1-.17.15.08.08,0,0,1,0-.09c-.45,0,.12.37-.15.61-.09-.16-.29-.19-.31-.12.11-.1.25.17.25.36-.27.06-.12.25-.22.32l.15,0c.09.16,0,.22-.1.37-.1-.09,0-.17,0-.17.08.35-.52,0-.56.36-.17,0-.24-.24-.37-.23-.05.36-.39,0-.47.37.23.12.2.06.2.38l.24-.46V42c.11-.1.12-.32.21-.35,0,.24,0,.19.18.29-.39-.12-.15.43-.48.41l-.4-.44c-.43,0-.24.65-.67.85l.18,0c.12.21-.18.22-.22.39-.13-.15-.24-.14-.37-.19.11.1-.25.22,0,.53l-.33,0c-.34.18.09.69-.22.89-.07-.23-.28-.22-.22-.49-.09.08-.19.13-.1.23-.14,0-.05.42-.26.36,0,.1.16.26,0,.34A.2.2,0,0,1,48,44.7c.07.07-.06.24.18.32-.69-.19-.69.74-1.28.58a4.7,4.7,0,0,1-.47.66c0-.05-.07-.07,0-.09-.36.09.26.54-.15.65-.36-.1,0-.26-.15-.26-.49-.43-.25.37-.69.27l0-.07c-.29,0-.15.5-.41.68a.21.21,0,0,0-.07-.07,1.56,1.56,0,0,1-.26,1c-.12-.24,0-.19-.22-.33-.07.12.32.27.19.5-.16,0-.38,0-.59-.16l.16-.19c-.34-.16-.22.24-.35.29l-.1-.12c-.23.31,0,.59-.27.86l.11.05c.12.43-.29,0-.24.34l-.33-.23a3.56,3.56,0,0,1-.23.88,2.33,2.33,0,0,1,0-.9c-.11.1-.33.38-.24.57,0-.07,0-.19.08-.19a.78.78,0,0,1-.17.82c-.51-.57-.67.41-1.25.15-.15.57-.8.66-1.18,1.13.58.26-.11.14.36.53-.07.12-.11.15-.14.14h0l-.56.06c-.2,0,0-.19-.11-.27-.25.19-.28-.09-.54,0,.19.12.15.29,0,.36h.38c-.06.54-.63-.08-.7.45l0-.23c-.07.24-.57.59-.36,1.09-.08,0-.24-.1-.2-.2-.42.34-.42,1.23-.92,1.32L37.17,55c0,.1.09.32-.11.31,0,0-.08-.13-.12-.1s0,.37-.14.41l0-.2c-.5.25-.24.86-.46,1.25a.73.73,0,0,0-.9,0l0,0c-.44.42-.41,1-.66,1.54-.59-.06-.93.74-1.51,1,.12,0,.25.24.21.34s0,.47-.3.19l0,0c-.36-.19-.47.08-.61.23l.37.37c-.94-.09-.73,1.28-1.44,1.05,0,.19-.1.31-.08.5l-.21-.19a2.39,2.39,0,0,0-.69.74l-.09-.2c-.18.18.41.78.27,1l-.37-.22c-.29.34-.86.45-.85,1,0,0-.13-.13-.09-.2-.14.15-.74.44-.25.76-.29-.24-.32.33-.35.62l-.19-.21c.14.38.21.45.11.73-.07,0-.21-.1-.1-.12-.26.08.09.3-.2.42l-.07-.19c-.16.16-.08.21,0,.44s-.33.29-.55.16c.1.12.18.35,0,.41a.2.2,0,0,1-.11-.16c-.39.18-.11.65-.49.68a.29.29,0,0,0-.16-.07c.2-.23.37-.42.37-.39-.2-.16-.39,0-.54-.38,0,.28.14.81-.11.92l-.09,0v0a.13.13,0,0,0-.06.15.45.45,0,0,0-.19.11c-.18-.11-.27.15-.35.24.22.17.09.27.36.29,0,0,0,0,0-.11a.12.12,0,0,0,0-.06v0l.18-.25c0,.17.08.32-.13.33.1.16.2.33.24.42-.41-.12-.78,0-1-.11-.11.39-.48.76-.22,1.27,0,.13-.2,0-.29,0s.05-.13,0-.21c0,.25-.36.53-.1.8-.3.11-.17-.33-.36,0L24.75,70c-.91.21,0,1.52-1.09,1.69a.2.2,0,0,1,.16,0c-.83.53-.93,1.69-1.9,2.09-.24.14-.07.31,0,.54l-.27-.14.11.43c0,.46-1,.08-.9.76l.2.07c-.14.12-.24.51-.41.35,0,0,.14.17,0,.16l-.13-.09,0,.5c-.29.2-.47-.42-.79,0-.06.18.06.68.19.69a.26.26,0,0,1,.32,0l0,.18c.36.3.66.69,1.17.56l-.06-.39.24.06-.13.2c.25,0,.15-.16.1-.31a.41.41,0,0,0,.27.06l-.19-.49c.17.08.22.31.41.23-.09-.23-.4-.15-.38-.4.25,0,.36.15.31-.08a.24.24,0,0,1,.15.21c0-.2.17-.33,0-.54.29,0,.23-.42.57-.14a.77.77,0,0,1-.06-.52c.28.51.31-.37.73,0-.27-.43.21-.63.19-1,0,0,.06.11,0,.12.14-.11.28-.07.42-.1-.3-.26-.2-.52-.3-.79.43.06.29.38.61.55-.26-.19,0-.48-.28-.59.29,0,.18,0,.48.09-.37-.32,0-.17-.13-.46.34,0,.4.23.44-.06.19,0,.19.28.19.28.17-.2-.21-.32-.34-.49.11-.31.3.05.52.08,0-.21-.13-.54,0-.65s.09,0,.13.09c-.1-.34.37-.49.23-.91l.09,0a2,2,0,0,1-.42-.28c.07-.1,0-.32.17-.2-.05.05,0,.12.06.19v-.16c.34.13,0,.21.19.37.06-.26,0-.66.2-.74.29.18-.18.41.21.4l-.28.14c.55.16-.14.11.44.31.31-.23.12-.44.43-.67-.09-.18-.24-.15-.33-.34.07-.63.93.21.82-.38-.11-.22-.42-.52-.07-.59l.24.31c.26-.26-.3-.51.14-.64.07.15-.08.3,0,.29.39,0-.06-.27.06-.42l.29.18c.2-.33.28-.82.5-1.19.06.08.1.21.24.19a2.55,2.55,0,0,1,1.25-1.14l-.1-.34s.16,0,.17.09c.22-.08-.14-.13-.16-.28s.23,0,.25.1c0-.43.24-1.13.73-1.22l0,.11c.28-.15-.25-.64.14-.68v.07c.51-.41.75-1.13,1.41-1.2-.26-.34.56-.36.14-.77.46-.09.47.06,1-.2.11-.09-.14-.4-.08-.56l.24.2-.09-.39.36.15,0-.17a.25.25,0,0,1-.25-.05c.06-.28.56-.32.68-.22l.19-.62c.08.09.05.19.06.31,0-.44.28.17.25-.24-.08,0-.12-.14-.17-.18.23,0,.45-.23.56-.46l.13.18c.33-.29.54-.75.86-1.11-.19.06-.44-.21-.37-.34l.28.17c-.09-.2-.19,0-.25-.28.15-.11.36.16.37.3l.06-.24c.08.06.08.13.17.22-.09-.2.5-.07.32-.4l.08.06c.33-.36.39-.6.65-.91-.2-.19-.05-.27-.14-.51a2.75,2.75,0,0,0,.87-.52c.07-.28-.13-.21-.17-.41.2.16.42-.12.43.14a3,3,0,0,0,.54-1c-.12,0-.19,0-.24-.1s.23-.09.31,0v0c.13-.7,1.49-.51,1.42-1.22v0l.14-.55c.19-.13,0,.23.28.22.06-.68.63-.57.73-1.08.78.28.8-.91,1.46-.91l-.15-.1c0-.21.17,0,.26-.07-.11-.09-.2,0-.22-.14.54-.88,1.65-1.3,2.48-1.93.3-.24-.5-.8.13-.84l.14.33c.25-.83,1.11-1.1,1.41-1.86,0,.09.09.16,0,.21.28.06.42-.4.29-.54.1-.07.14.11.26.13s.07-.5.3-.39c0,0,0,.09,0,.12,0-.16.36-.32.1-.44.29-.1.3-.46.57-.5-.11-.32.45-.23.17-.58.3.34.6-.08.59-.36.05.14.21,0,.29.18.14-.14.22-.33,0-.48.64.13.24-.83.87-.47a9.17,9.17,0,0,1,.88-1.54c.29.34-.4.44-.06.77.24-.49.19-1,.64-1.25.14,0,.08.19.1.28.24-.49.76-.64.92-1.13a.21.21,0,0,1,0,.16c.06-.07.2-.09.05-.24l0,.1c-.31-.12-.16-.7-.25-.82.29.54.43-.2.76.51a.29.29,0,0,0-.1-.28c.09,0,.17,0,.21.19.16-.3-.07-.38.15-.58.07.07,0,.14.11.25,0-.24,0-.49.2-.59,0,.05.1.09,0,.14.29-.31.19-.87.65-1,.19.41.21,0,.48.26l.11-.25-.2-.07c.17-.14.13-.47.35-.51l0,.22.26-.33-.27,0c0-.29-.33-.34,0-.45,0,.07.17-.14.4-.05h0c0-.16,0-.33.19-.37s.25.33.32.37c-.13-.3.33-.41.21-.74a.6.6,0,0,0,.18.26l-.1-.25c.13,0,.17,0,.26.14.26-.17-.39-.29,0-.38,0,0,0,.05,0,.12.34-.16.42-.59.75-.72.32.22-.16.26.14.43.31-.37.45-1,.87-1.24l-.09,0c-.3-.44.44,0,.45-.37,0,.07.14.27.11.22.3-.14.41-.52.67-1l0,.14c.22,0,.42-.27.62-.36,0-.14.06-.2-.12-.31,1,.18.64-1.1,1.49-1-.05,0,0,.19,0,.16l.28-.4c-.18-.15-.14-.07-.33-.14a.39.39,0,0,1,.08-.39c-.07.25.24.28.39.32-.06,0-.08-.12-.14-.17.45.16-.27-.38.17-.39l.06.1c.06-.13,0-.33.17-.39.21.17,0,.18.11.36.14-.13,0-.63.27-.54,0,.11-.1.19-.12.29.35.12.31,0,.45,0h0l.34-.1h-.12c-.26-.69.29-.41.25-1,0,.53.12.23.29.48.12,0,.27,0,.3.09,0-.12,0-.14.1-.16.23,0,.48,0,.59.07s0,.1-.1.12c.39,0,.6.51,1.07.44a.24.24,0,0,1,0,.1,1.48,1.48,0,0,1,.21-.3l.18.13-.05,0,.12,0,.05,0c-.12.31-.24-.07-.4.12a7.22,7.22,0,0,1,.73.23s0,0,0,0-.11,0-.17,0a.68.68,0,0,1,.23.21c-.18.11-.42-.3-.39.09L66.33,33c-.15.59-.14-.18-.33.42.29.39.52.23.81.62.21-.07.16-.23.36-.3.73.2-.17,1,.51,1,.14,0,.28-.15.41-.17a3.08,3.08,0,0,1,.18.3,1.53,1.53,0,0,0-.25.12.68.68,0,0,0,.37.22v0l.29.66a5.86,5.86,0,0,0-.22-.68h.13a1.08,1.08,0,0,1,.14.2s-.07,0-.05,0c.09.21.16.28.22.3.13.23.25.38.21,0a3.35,3.35,0,0,0,.46,1.31,1.39,1.39,0,0,0,.16-.55l.18.11a.58.58,0,0,1,0,.18l0-.14a13.9,13.9,0,0,1,1.2.73.79.79,0,0,0,.16.56,5,5,0,0,1,.79.62,12.33,12.33,0,0,1,.51-2.15l-.22-.76c0-.09.14-.06.18.1.15-.36-.17-.2-.25-.51s.19-.19.25,0a14.26,14.26,0,0,1-.17-1.65c0-.13,0-.26,0-.39a1.7,1.7,0,0,1,0-.25.9.9,0,0,1,.17-.4l.08.1c.15-.36-.56-.48-.25-.8l0,.07c.2-.8,0-1.73.52-2.31-.41-.16.26-.79-.32-.9.33-.44.43-.29.68-.93,0-.17-.34-.29-.38-.52l.31,0L73,26.89l.38-.12-.06-.21a.24.24,0,0,1-.24.14.69.69,0,0,1,.44-.74l-.19-.77c.12,0,.15.16.22.26-.28-.43.33,0,.08-.44-.07,0-.18,0-.24-.06a2.78,2.78,0,0,0,.25-1.52l.21,0C74,22.37,73.95,21.34,74.06,20.24ZM26.33,67.69a.62.62,0,0,1-.09-.11c0-.09.08-.08.13,0a.77.77,0,0,0-.06.13Zm1.73.78.06-.11h0Zm.23-.35c-.09,0-.15-.13-.11-.16s.15,0,.26,0A1.21,1.21,0,0,0,28.29,68.12ZM70.9,33.38h-.05v-.11A.83.83,0,0,1,70.9,33.38Zm0-4c.05-.17.18.06.26.13l-.26,0A1.21,1.21,0,0,1,70.88,29.43Zm-.14,3.89s0,0,0,0S70.75,33.3,70.74,33.31Zm.09.21c0,.06.06.12,0,.16l0,0Zm.32-4s0-.07,0-.11a.19.19,0,0,1,0,.11ZM67,29.88l-.19-.08a1.54,1.54,0,0,1,.09-.3C67,29.6,67,29.76,67,29.88Zm-.43-.16h0v0Zm2.36,3.45-.07-.22h0l0-.15a1.29,1.29,0,0,0-.33-.61.94.94,0,0,1-.25-.66,1.6,1.6,0,0,1-.44-.3s.06-.08.07,0c0-.32-.45.34-.64-.15.06-.4.3.06.28-.13.42-.5-.47-.35-.44-.85l.09,0a.26.26,0,0,0-.15-.19.9.9,0,0,0,.19-.59l.24.14a3,3,0,0,1,.15.37l-.05,0a.36.36,0,0,1,.46.08,1.33,1.33,0,0,0,.14.27.4.4,0,0,1-.33,0l.15.19a.38.38,0,0,1,.35.09l-.25.12c.21.24.65.31.75.75l.05,0,.1.12c.06.29.36,1.12.24,1.29-.12-.51-.25-.71-.32-1.13,0,.06-.06,0,0,.32,0-.11,0,.07,0,.25s0,.41,0,.14c0,.18.13.65.06.51l0-.22a3.8,3.8,0,0,0,.08.56Zm-3.2-7.06,0,0v0A.17.17,0,0,0,65.74,26.11Zm-.36.31-.08.06Zm-.1.07-.08,0h0Zm3.92,5.09,0,0h0ZM67.6,26.31c0-.15,0-.31.12-.31-.06-.1-.26-.36,0-.6.26-.09.31.41.24.55s-.05,0-.06,0a.2.2,0,0,0,0,.18.31.31,0,0,0,0,.09.82.82,0,0,1-.24.48c0-.06,0-.11-.05-.17l.06,0C67.69,26.54,67.62,26.44,67.6,26.31Zm1.5,5.16,0,0,.06.11h0ZM69,29.55l0-.12.07.07Zm.57.41a.23.23,0,0,1,0,.17C69.51,30.08,69.54,30,69.59,30Zm-.06-.16c-.09-.08-.18-.19-.27-.26a.42.42,0,0,1-.06-.23c.21.17.15.16.34.06C69.34,29.52,69.45,29.66,69.53,29.81Zm-.36-.8c-.11.15-.33,0-.4.17a.24.24,0,0,1,0,.3l0,0v0l0,0c-.31-.29-.47-.72-.79-1,0-.15,0-.17-.09-.3v0l-.14-.42v.14c-.46.11-.53-.08-.67-.25l0,0H67a.51.51,0,0,0-.23-.14v0a.36.36,0,0,0,.18,0h0s0-.08.06-.15l.18,0c.16,0,.24.08.45-.2s.45-.42.74-.61a.94.94,0,0,1-.17.24l-.09,0c.05,0,.05,0,.05,0l.21-.15a.21.21,0,0,1-.12.12,1.57,1.57,0,0,0,.28-.13l-.11.07a.2.2,0,0,1,0,.1c-.07,0-.13,0-.15,0s0,0,0,.13-.07,0-.09,0c-.13.3.07.27.24.33l-.13.18c0,.09.3-.12.24.08a.26.26,0,0,0-.13.08l-.26.08a.82.82,0,0,1,.39.25c-.17.08-.26,0-.37,0a1.07,1.07,0,0,0,.44.42l.09-.15c0,.08-.23,0-.28,0-.21-.11.08-.22.18-.27l.07.12a.46.46,0,0,0,.14-.09c0,.1.15.14.15.24l0-.18c.18,0,.18.18.26.37-.13,0-.12-.17-.17-.09C69.53,28.38,68.93,28.73,69.17,29Zm-2.42-1.6h0ZM67.84,26h0l0,0Zm.87,1.28,0-.07Zm.05-.45s0,0,0,0a1,1,0,0,1,.14-.16A.16.16,0,0,1,68.77,26.86ZM68.24,26a.14.14,0,0,1,.11,0Zm.44-.13-.3.11c0-.09,0-.24.08-.24s.14,0,.21-.11.15-.25.2-.24,0,0,0,0A2.34,2.34,0,0,1,68.68,25.85ZM67,26.39s0,0,0,.1a.35.35,0,0,1-.21-.07A.39.39,0,0,1,67,26.39Zm-4.39.68a2.79,2.79,0,0,1,.47,0c-.32-.05,0-.11.16-.13a2.06,2.06,0,0,0,.52-.07c-.91-.28,0,0-.74-.38a.15.15,0,0,1,.17-.06h0a2.89,2.89,0,0,1,.62.15c.18.12,0,.13.18.22s.25.18.37.31c-.15-.18-.17-.27-.1-.21a.94.94,0,0,0-.21-.22c0-.35.38.4.75-.09l-.09.24a.89.89,0,0,1,.17-.11,2.65,2.65,0,0,0-.21.28c0,.09-.15.19-.14.26a.43.43,0,0,1,.12.17l.12.08a.76.76,0,0,1-.59,0c0-.06-.05-.12-.32,0v.07c.55.18,1.18.34,1.69.49a3.57,3.57,0,0,1,.87.37l0,0s0,0,.08,0a1.72,1.72,0,0,1,.24.16l-.09-.12c.45-.33.2.47.57.47-.08,0-.26.17-.21.13a.84.84,0,0,0,.14.13H67c0-.06.17.16.16.23,0,.27-.25.08-.32,0l.06-.13c-.36-.28-.36.11-.45.36a.68.68,0,0,1-.22-.14.16.16,0,0,0,.07-.07h-.12v0a2.86,2.86,0,0,1-1.13-.32c.25-.13.22,0,.32-.25-.16-.08-.21.36-.53.22,0-.18-.14-.42,0-.66l.28.18c.07-.39-.36-.24-.47-.39l.11-.12a.91.91,0,0,0-.56-.08.74.74,0,0,1-.47-.08l0,.11c-.47.17,0-.25-.41-.16l.3-.28a3.89,3.89,0,0,1-1.14-.08c.57,0,1,0,1.22-.05a1,1,0,0,0-.6-.06c.09,0,.26,0,.22,0a2.34,2.34,0,0,1-1.11-.06l0-.06C63.09,27.23,62.37,27.14,62.61,27.07Zm1,4.32c-.1-.21,0-.25-.1-.29.34-.32.19.07.52,0a.59.59,0,0,1,0,.12C63.7,30.89,63.9,31.45,63.6,31.4Zm7.21,3.18a2.08,2.08,0,0,1-.15-.34c-.13,0,0,.42.06.67,0,0-.08-.05-.19-.26l-.11-.3v0l.11.11c0-.08,0-.12,0-.09l-.1-.21c0-.07.1-.09.18-.06C70.78,34.3,70.88,34.57,70.82,34.58Zm-.1-.48.05,0c0-.11,0-.21,0-.31l.11.18C71,34.18,70.88,34.25,70.72,34.09ZM71,37l.17.12h0Zm-.13-9.86c.12.18.09.39.21.57l-.13,0c0-.09,0-.17-.16-.14l.07.11h-.06v0c-.27.09-.62-.41-.77-.4.61.11.06-.6.84-.41a.27.27,0,0,0-.29-.11c0-.12.09-.17.27-.08-.18-.39-.37-.22-.46-.74.09,0,.15.06.28.09a1.13,1.13,0,0,1-.48-.9c.06,0,.12-.13.14,0a2.12,2.12,0,0,0-.4-.81,1.31,1.31,0,0,0,.74.08v.06c.06,0,.05-.09.15-.26a2.12,2.12,0,0,1,.49-.57c-.07.2-.08.28-.06.32-.1.23,0,.34-.24.54.09-.07.36-.19.4-.16s.3.11-.12.19v0a1.5,1.5,0,0,0-.31.12,0,0,0,0,0,0,0l0,.21.52.09C70.6,25.57,71.54,26.8,70.82,27.11Zm1,10.6-.31-.29c-.09-.21-.13-.38-.06-.31a3.09,3.09,0,0,0,.37.6h0Z"/><polygon class="cls-1" points="73.36 27.22 73.29 27.22 73.34 27.28 73.36 27.22"/><path class="cls-1" d="M67.88,28.13l-.06-.24A.93.93,0,0,0,67.88,28.13Z"/><polygon class="cls-1" points="69.93 36.67 69.93 36.66 69.91 36.72 69.93 36.67"/><path class="cls-1" d="M68.17,28.12h0l0,0Z"/><path class="cls-1" d="M68.25,28.16s0,.1.07.12Z"/><path class="cls-1" d="M68,27.18s0,.18,0,.23h0l.07-.08s0,0,0,0S68.15,27,68,27.18Z"/><path class="cls-1" d="M67.36,27.34c-.1,0-.09.06-.22.16Z"/><path class="cls-1" d="M64.31,27.12l-.37.19.36,0C64.21,27.28,64.27,27.2,64.31,27.12Z"/><path class="cls-1" d="M68.37,31.21v.49S68.41,31.11,68.37,31.21Z"/><path class="cls-1" d="M63.76,27.65c.05.06,0,.2.12.19S63.94,27.57,63.76,27.65Z"/><polygon class="cls-1" points="70.98 25.36 71.01 25.24 70.92 25.1 70.98 25.36"/><text x="0" y="115" fill="#000000" font-size="5px" font-weight="bold" font-family="'Helvetica Neue', Helvetica, Arial-Unicode, Arial, Sans-serif">Created by Gamze Genc Celik</text><text x="0" y="120" fill="#000000" font-size="5px" font-weight="bold" font-family="'Helvetica Neue', Helvetica, Arial-Unicode, Arial, Sans-serif">from the Noun Project</text></svg>