<?xml version="1.0" encoding="UTF-8" standalone="no"?>
<svg
   xmlns:dc="http://purl.org/dc/elements/1.1/"
   xmlns:cc="http://creativecommons.org/ns#"
   xmlns:rdf="http://www.w3.org/1999/02/22-rdf-syntax-ns#"
   xmlns:svg="http://www.w3.org/2000/svg"
   xmlns="http://www.w3.org/2000/svg"
   xmlns:sodipodi="http://sodipodi.sourceforge.net/DTD/sodipodi-0.dtd"
   xmlns:inkscape="http://www.inkscape.org/namespaces/inkscape"
   version="1.1"
   x="0px"
   y="0px"
   viewBox="0 0 64 80"
   enable-background="new 0 0 64 64"
   xml:space="preserve"
   id="svg10"
   sodipodi:docname="piece_fonction_double.svg"
   inkscape:version="0.92.2 (5c3e80d, 2017-08-06)"><metadata
     id="metadata16"><rdf:RDF><cc:Work
         rdf:about=""><dc:format>image/svg+xml</dc:format><dc:type
           rdf:resource="http://purl.org/dc/dcmitype/StillImage" /><dc:title /></cc:Work></rdf:RDF></metadata><defs
     id="defs14" /><sodipodi:namedview
     pagecolor="#ffffff"
     bordercolor="#666666"
     borderopacity="1"
     objecttolerance="10"
     gridtolerance="10"
     guidetolerance="10"
     inkscape:pageopacity="0"
     inkscape:pageshadow="2"
     inkscape:window-width="1366"
     inkscape:window-height="705"
     id="namedview12"
     showgrid="false"
     inkscape:zoom="8.34386"
     inkscape:cx="60.848845"
     inkscape:cy="36.83054"
     inkscape:window-x="-8"
     inkscape:window-y="-8"
     inkscape:window-maximized="1"
     inkscape:current-layer="svg10" /><path
     inkscape:connector-curvature="0"
     d="m 106.21035,59.978213 -0.009,-13.588963 c -7e-4,-1.032761 -0.001,-2.065523 1.03136,-2.066224 2.06552,-0.0014 3.15404,2.06338 6.25231,2.061276 3.0983,-0.0021 5.21677,-2.069068 5.21463,-5.221708 -0.002,-3.15264 -2.06907,-5.216758 -5.22172,-5.214616 -3.15264,0.0021 -4.18398,2.068365 -6.24951,2.069768 -1.03276,7.02e-4 -1.03346,-1.032058 -1.03416,-2.06482 l -0.009,-13.588963 c -0.001,-2.065522 -0.001,-2.065522 -2.06693,-2.064117 l -13.588965,0.0092 c -1.032757,7.01e-4 -2.065515,0.0014 -2.064813,1.034164 0.0014,2.065521 2.067657,3.151236 2.069762,6.249518 0.0021,3.098284 -2.061969,5.219566 -5.214616,5.221708 -3.152636,0.0021 -5.219564,-2.061977 -5.221706,-5.214617 -0.0021,-3.152639 2.062681,-4.186803 2.061277,-6.252325 -7.01e-4,-1.03276 -1.033458,-1.032059 -2.066226,-1.031357 l -13.588958,0.0092 c -2.065524,0.0014 -2.065524,0.0014 -2.064121,2.066925 l 0.0092,13.588963 c 7.03e-4,1.032761 0.0014,2.065522 1.034161,2.06482 2.065525,-0.0014 3.151244,-2.067663 6.249525,-2.069768 3.098282,-0.0021 5.219564,2.061975 5.221706,5.214616 0.0021,3.15264 -2.061978,5.219565 -5.214615,5.221707 -3.152635,0.0021 -4.186807,-2.062679 -6.252331,-2.061275 -1.032758,7.01e-4 -1.032056,1.033463 -1.031354,2.066224 l 0.0092,13.588963 c 0.0014,2.065519 0.0014,2.065519 2.066929,2.064116 l 13.588957,-0.0092 c 1.032768,-7.01e-4 2.065524,-0.0014 2.064823,-1.034163 -0.0014,-2.065519 -2.067666,-3.151235 -2.069771,-6.249518 -0.0021,-3.098284 2.061979,-5.219566 5.214614,-5.221707 3.152647,-0.0021 5.219565,2.061976 5.221707,5.214616 0.0021,3.152639 -2.062671,4.186805 -2.061268,6.252325 7.02e-4,1.032759 1.03346,1.032058 2.066217,1.031356 l 13.588966,-0.0092 c 2.06556,0.0529 2.06556,0.0529 2.06412,-2.066923 z"
     id="path65"
     style="stroke-width:0.54355866" /></svg>