<?xml version="1.0" encoding="UTF-8" standalone="no"?>
<svg
   xmlns:dc="http://purl.org/dc/elements/1.1/"
   xmlns:cc="http://creativecommons.org/ns#"
   xmlns:rdf="http://www.w3.org/1999/02/22-rdf-syntax-ns#"
   xmlns:svg="http://www.w3.org/2000/svg"
   xmlns="http://www.w3.org/2000/svg"
   xmlns:sodipodi="http://sodipodi.sourceforge.net/DTD/sodipodi-0.dtd"
   xmlns:inkscape="http://www.inkscape.org/namespaces/inkscape"
   version="1.1"
   x="0px"
   y="0px"
   viewBox="0 0 64 80"
   enable-background="new 0 0 64 64"
   xml:space="preserve"
   id="svg10"
   sodipodi:docname="piece_couleur.svg"
   inkscape:version="0.92.2 (5c3e80d, 2017-08-06)"><metadata
     id="metadata16"><rdf:RDF><cc:Work
         rdf:about=""><dc:format>image/svg+xml</dc:format><dc:type
           rdf:resource="http://purl.org/dc/dcmitype/StillImage" /><dc:title /></cc:Work></rdf:RDF></metadata><defs
     id="defs14" /><sodipodi:namedview
     pagecolor="#ffffff"
     bordercolor="#666666"
     borderopacity="1"
     objecttolerance="10"
     gridtolerance="10"
     guidetolerance="10"
     inkscape:pageopacity="0"
     inkscape:pageshadow="2"
     inkscape:window-width="1366"
     inkscape:window-height="705"
     id="namedview12"
     showgrid="false"
     inkscape:zoom="4"
     inkscape:cx="-5.5"
     inkscape:cy="52.728738"
     inkscape:window-x="-8"
     inkscape:window-y="-8"
     inkscape:window-maximized="1"
     inkscape:current-layer="svg10" /><path
     inkscape:connector-curvature="0"
     d="m 66.60785,71.32388 h -25 c -1.9,0 -3.8,0 -3.8,1.9 0,3.8 3.8,5.8 3.8,11.5 0,5.7 -3.8,9.6 -9.6,9.6 -5.8,0 -9.6,-3.8 -9.6,-9.6 0,-5.8 3.8,-7.7 3.8,-11.5 0,-1.9 -1.9,-1.9 -3.8,-1.9 h -25 c -3.8,0 -3.8,0 -3.8,-3.8 v -25 c 0,-19.2 0,0 0,-19.2 v -25 c 0,-3.8 0,-3.8 3.8,-3.8 h 25 c 19.2,0 0,0 19.2,0 h 25 c 3.8,0 3.8,0 3.8,3.8 v 25 c 0,19.2 0,0 0,19.2 v 25 c 0.1,3.8 0.1,3.8 -3.8,3.8 z"
     id="path22"
     sodipodi:nodetypes="ssssssssssccssccsscccs" /></svg>