<?xml version="1.0" encoding="UTF-8" standalone="no"?>
<svg
   xmlns:dc="http://purl.org/dc/elements/1.1/"
   xmlns:cc="http://creativecommons.org/ns#"
   xmlns:rdf="http://www.w3.org/1999/02/22-rdf-syntax-ns#"
   xmlns:svg="http://www.w3.org/2000/svg"
   xmlns="http://www.w3.org/2000/svg"
   xmlns:sodipodi="http://sodipodi.sourceforge.net/DTD/sodipodi-0.dtd"
   xmlns:inkscape="http://www.inkscape.org/namespaces/inkscape"
   version="1.1"
   x="0px"
   y="0px"
   viewBox="0 0 64 80"
   enable-background="new 0 0 64 64"
   xml:space="preserve"
   id="svg10"
   sodipodi:docname="piece_fonction_simple.svg"
   inkscape:version="0.92.2 (5c3e80d, 2017-08-06)"><metadata
     id="metadata16"><rdf:RDF><cc:Work
         rdf:about=""><dc:format>image/svg+xml</dc:format><dc:type
           rdf:resource="http://purl.org/dc/dcmitype/StillImage" /><dc:title /></cc:Work></rdf:RDF></metadata><defs
     id="defs14" /><sodipodi:namedview
     pagecolor="#ffffff"
     bordercolor="#666666"
     borderopacity="1"
     objecttolerance="10"
     gridtolerance="10"
     guidetolerance="10"
     inkscape:pageopacity="0"
     inkscape:pageshadow="2"
     inkscape:window-width="1366"
     inkscape:window-height="705"
     id="namedview12"
     showgrid="false"
     inkscape:zoom="11.8"
     inkscape:cx="33.214554"
     inkscape:cy="23.611927"
     inkscape:window-x="-8"
     inkscape:window-y="-8"
     inkscape:window-maximized="1"
     inkscape:current-layer="svg10" /><path
     inkscape:connector-curvature="0"
     d="M 45.589822,55.905724 V 44.237472 c 0,-0.886787 0,-1.773574 0.886787,-1.773574 1.773575,0 2.707035,1.773574 5.367396,1.773574 2.660362,0 4.480609,-1.773574 4.480609,-4.480609 0,-2.707034 -1.773574,-4.480608 -4.480609,-4.480608 -2.707034,0 -3.593821,1.773574 -5.367396,1.773574 -0.886787,0 -0.886787,-0.886787 -0.886787,-1.773574 V 23.608003 c 0,-1.773574 0,-1.773574 -1.773574,-1.773574 H 32.147996 c -0.886787,0 -1.773574,0 -1.773574,0.886787 0,1.773574 1.773574,2.707034 1.773574,5.367396 0,2.660361 -1.773574,4.480608 -4.480608,4.480608 -2.707035,0 -4.480609,-1.773574 -4.480609,-4.480608 0,-2.707035 1.773574,-3.593822 1.773574,-5.367396 0,-0.886787 -0.886787,-0.886787 -1.773574,-0.886787 H 11.518527 c -1.773574,0 -1.773574,0 -1.773574,1.773574 v 11.668252 c 0,0.886787 0,1.773574 0.886787,1.773574 1.773574,0 2.707035,-1.773574 5.367396,-1.773574 2.660361,0 4.480609,1.773574 4.480609,4.480608 0,2.707035 -1.773575,4.480609 -4.480609,4.480609 -2.707034,0 -3.593822,-1.773574 -5.367396,-1.773574 -0.886787,0 -0.886787,0.886787 -0.886787,1.773574 v 11.668252 c 0,1.773574 0,1.773574 1.773574,1.773574 h 11.668252 c 11.755897,0.03484 0,0 8.961217,0 h 11.668252 c 1.773574,0.04667 1.773574,0.04667 1.773574,-1.773574 z"
     id="path21"
     style="stroke-width:0.46673006"
     sodipodi:nodetypes="sssssssssssssssssssssssssssscccs" /></svg>